<svg width="14" height="12" viewBox="0 0 14 12" fill="none" xmlns="http://www.w3.org/2000/svg">
<path d="M12.3846 1.56522H10.5188L9.60144 0.232174C9.55229 0.160795 9.48573 0.102263 9.40766 0.0617645C9.32958 0.0212662 9.2424 5.15249e-05 9.15385 0H4.84615C4.7576 5.15249e-05 4.67042 0.0212662 4.59234 0.0617645C4.51427 0.102263 4.44771 0.160795 4.39856 0.232174L3.48048 1.56522H1.61538C1.18696 1.56522 0.776079 1.73012 0.473135 2.02366C0.170192 2.31719 0 2.71531 0 3.13043V10.4348C0 10.8499 0.170192 11.248 0.473135 11.5416C0.776079 11.8351 1.18696 12 1.61538 12H12.3846C12.813 12 13.2239 11.8351 13.5269 11.5416C13.8298 11.248 14 10.8499 14 10.4348V3.13043C14 2.71531 13.8298 2.31719 13.5269 2.02366C13.2239 1.73012 12.813 1.56522 12.3846 1.56522ZM9.42308 6.52174C9.42308 6.98609 9.28097 7.44002 9.01472 7.82612C8.74846 8.21222 8.37003 8.51315 7.92727 8.69085C7.48451 8.86855 6.99731 8.91504 6.52728 8.82445C6.05725 8.73386 5.6255 8.51025 5.28663 8.1819C4.94775 7.85355 4.71698 7.43521 4.62348 6.97978C4.52999 6.52434 4.57797 6.05227 4.76137 5.62326C4.94477 5.19426 5.25534 4.82758 5.65381 4.56959C6.05228 4.31161 6.52076 4.17391 7 4.17391C7.64264 4.17391 8.25896 4.42127 8.71337 4.86158C9.16779 5.30188 9.42308 5.89906 9.42308 6.52174Z" fill="#454545"/>
</svg>
