<svg width="21" height="21" viewBox="0 0 21 21" fill="none" xmlns="http://www.w3.org/2000/svg">
<path d="M16.4062 3.28125H4.59375C4.24565 3.28125 3.91181 3.41953 3.66567 3.66567C3.41953 3.91181 3.28125 4.24565 3.28125 4.59375V16.4062C3.28125 16.7543 3.41953 17.0882 3.66567 17.3343C3.91181 17.5805 4.24565 17.7188 4.59375 17.7188H16.4062C16.7543 17.7188 17.0882 17.5805 17.3343 17.3343C17.5805 17.0882 17.7188 16.7543 17.7188 16.4062V4.59375C17.7188 4.24565 17.5805 3.91181 17.3343 3.66567C17.0882 3.41953 16.7543 3.28125 16.4062 3.28125ZM16.4062 9.84375H11.1562V4.59375H16.4062V9.84375ZM9.84375 4.59375V9.84375H4.59375V4.59375H9.84375ZM4.59375 11.1562H9.84375V16.4062H4.59375V11.1562ZM16.4062 16.4062H11.1562V11.1562H16.4062V16.4062Z" fill="#7E7E7E"/>
</svg>
