<svg width="18" height="18" viewBox="0 0 18 18" fill="none" xmlns="http://www.w3.org/2000/svg">
<path d="M2.9772 6.35202C3.02945 6.29972 3.09148 6.25823 3.15977 6.22992C3.22806 6.20161 3.30125 6.18704 3.37517 6.18704C3.4491 6.18704 3.52229 6.20161 3.59058 6.22992C3.65887 6.25823 3.7209 6.29972 3.77314 6.35202L9.00018 11.5798L14.2272 6.35202C14.3328 6.24647 14.4759 6.18717 14.6252 6.18717C14.7744 6.18717 14.9176 6.24647 15.0231 6.35202C15.1287 6.45756 15.188 6.60072 15.188 6.74999C15.188 6.89925 15.1287 7.04241 15.0231 7.14795L9.39814 12.773C9.3459 12.8253 9.28387 12.8667 9.21558 12.895C9.14729 12.9234 9.0741 12.9379 9.00017 12.9379C8.92625 12.9379 8.85306 12.9234 8.78477 12.895C8.71648 12.8667 8.65445 12.8253 8.60221 12.773L2.9772 7.14795C2.92491 7.09571 2.88342 7.03367 2.85511 6.96539C2.8268 6.8971 2.81223 6.82391 2.81223 6.74998C2.81223 6.67606 2.8268 6.60287 2.85511 6.53458C2.88342 6.46629 2.92491 6.40426 2.9772 6.35202Z" fill="#616161"/>
</svg>
