<svg width="20" height="20" viewBox="0 0 20 20" fill="none" xmlns="http://www.w3.org/2000/svg">
<path d="M15.0417 5.84615H4.95833C4.83678 5.84615 4.7202 5.89478 4.63424 5.98134C4.54829 6.06789 4.5 6.18528 4.5 6.30769C4.5 6.4301 4.54829 6.54749 4.63424 6.63405C4.7202 6.7206 4.83678 6.76923 4.95833 6.76923H5.41667V15.0769C5.41667 15.3217 5.51324 15.5565 5.68515 15.7296C5.85706 15.9027 6.09022 16 6.33333 16H13.6667C13.9098 16 14.1429 15.9027 14.3148 15.7296C14.4868 15.5565 14.5833 15.3217 14.5833 15.0769V6.76923H15.0417C15.1632 6.76923 15.2798 6.7206 15.3658 6.63405C15.4517 6.54749 15.5 6.4301 15.5 6.30769C15.5 6.18528 15.4517 6.06789 15.3658 5.98134C15.2798 5.89478 15.1632 5.84615 15.0417 5.84615ZM13.6667 15.0769H6.33333V6.76923H13.6667V15.0769ZM7.25 4.46154C7.25 4.33913 7.29829 4.22174 7.38424 4.13518C7.4702 4.04863 7.58678 4 7.70833 4H12.2917C12.4132 4 12.5298 4.04863 12.6158 4.13518C12.7017 4.22174 12.75 4.33913 12.75 4.46154C12.75 4.58395 12.7017 4.70134 12.6158 4.7879C12.5298 4.87445 12.4132 4.92308 12.2917 4.92308H7.70833C7.58678 4.92308 7.4702 4.87445 7.38424 4.7879C7.29829 4.70134 7.25 4.58395 7.25 4.46154Z" fill="#616161"/>
</svg>
