<svg width="18" height="18" viewBox="0 0 18 18" fill="none" xmlns="http://www.w3.org/2000/svg">
<path d="M16.0315 12.3047C15.9672 12.3413 15.8964 12.3649 15.823 12.3742C15.7496 12.3834 15.6751 12.3781 15.6038 12.3585C15.5325 12.3389 15.4657 12.3054 15.4074 12.26C15.349 12.2146 15.3002 12.1581 15.2636 12.0938L13.9277 9.75939C13.151 10.2845 12.2943 10.6801 11.3908 10.9308L11.8036 13.4072C11.8157 13.4801 11.8134 13.5547 11.7968 13.6267C11.7801 13.6987 11.7494 13.7667 11.7064 13.8269C11.6635 13.887 11.6091 13.9381 11.5464 13.9772C11.4836 14.0163 11.4138 14.0427 11.3409 14.0548C11.3109 14.0597 11.2806 14.0623 11.2502 14.0625C11.1171 14.0623 10.9884 14.0149 10.887 13.9288C10.7856 13.8427 10.7179 13.7234 10.6961 13.5921L10.2904 11.1607C9.43488 11.2798 8.56695 11.2798 7.71138 11.1607L7.30568 13.5921C7.28385 13.7236 7.21602 13.8431 7.11428 13.9293C7.01255 14.0154 6.88352 14.0626 6.75021 14.0625C6.71912 14.0624 6.68808 14.0598 6.6574 14.0548C6.58448 14.0427 6.51467 14.0163 6.45195 13.9772C6.38923 13.9381 6.33483 13.887 6.29186 13.8269C6.24889 13.7667 6.2182 13.6987 6.20154 13.6267C6.18487 13.5547 6.18256 13.4801 6.19474 13.4072L6.60958 10.9308C5.70651 10.6794 4.85022 10.283 4.07411 9.75728L2.7424 12.0938C2.6678 12.2237 2.54463 12.3188 2.39998 12.3579C2.25533 12.3971 2.10104 12.3772 1.97107 12.3026C1.84109 12.228 1.74607 12.1048 1.70691 11.9602C1.66774 11.8155 1.68765 11.6612 1.76224 11.5313L3.16849 9.07032C2.67454 8.64358 2.22034 8.1729 1.81146 7.66407C1.76047 7.60714 1.72161 7.54041 1.69727 7.46797C1.67292 7.39552 1.6636 7.31887 1.66986 7.24269C1.67612 7.16652 1.69785 7.09242 1.7337 7.02493C1.76955 6.95743 1.81878 6.89794 1.87839 6.8501C1.938 6.80227 2.00673 6.76708 2.08039 6.74668C2.15405 6.72629 2.23109 6.72112 2.30681 6.7315C2.38253 6.74187 2.45535 6.76757 2.52081 6.80702C2.58627 6.84647 2.64301 6.89884 2.68755 6.96095C3.85474 8.40517 5.89661 10.125 9.00021 10.125C12.1038 10.125 14.1457 8.40306 15.3129 6.96095C15.3569 6.89757 15.4135 6.84393 15.4792 6.80337C15.5448 6.76281 15.6181 6.7362 15.6945 6.72518C15.7709 6.71417 15.8487 6.71899 15.9232 6.73934C15.9976 6.7597 16.0671 6.79516 16.1272 6.84351C16.1874 6.89186 16.2369 6.95207 16.2728 7.0204C16.3087 7.08873 16.3301 7.16371 16.3358 7.24068C16.3414 7.31764 16.3312 7.39495 16.3057 7.46779C16.2802 7.54063 16.24 7.60744 16.1876 7.66407C15.7787 8.1729 15.3245 8.64358 14.8305 9.07032L16.2368 11.5313C16.2745 11.5954 16.2992 11.6664 16.3093 11.7402C16.3194 11.8139 16.3147 11.8889 16.2957 11.9609C16.2766 12.0328 16.2434 12.1002 16.198 12.1593C16.1527 12.2183 16.0961 12.2677 16.0315 12.3047Z" fill="#616161"/>
</svg>
