<svg width="14" height="11" viewBox="0 0 14 11" fill="none" xmlns="http://www.w3.org/2000/svg">
<path d="M0.583333 2.75216H2.98958C3.11809 3.22501 3.40999 3.64413 3.81926 3.94342C4.22854 4.24272 4.7319 4.40517 5.25 4.40517C5.7681 4.40517 6.27146 4.24272 6.68074 3.94342C7.09001 3.64413 7.38191 3.22501 7.51042 2.75216H13.4167C13.5714 2.75216 13.7197 2.69425 13.8291 2.59119C13.9385 2.48813 14 2.34834 14 2.20259C14 2.05683 13.9385 1.91705 13.8291 1.81398C13.7197 1.71092 13.5714 1.65302 13.4167 1.65302H7.51042C7.38191 1.18016 7.09001 0.761046 6.68074 0.46175C6.27146 0.162454 5.7681 0 5.25 0C4.7319 0 4.22854 0.162454 3.81926 0.46175C3.40999 0.761046 3.11809 1.18016 2.98958 1.65302H0.583333C0.428624 1.65302 0.280251 1.71092 0.170854 1.81398C0.0614583 1.91705 0 2.05683 0 2.20259C0 2.34834 0.0614583 2.48813 0.170854 2.59119C0.280251 2.69425 0.428624 2.75216 0.583333 2.75216ZM5.25 1.10345C5.48074 1.10345 5.70631 1.16791 5.89816 1.28869C6.09002 1.40946 6.23956 1.58112 6.32786 1.78196C6.41616 1.98281 6.43927 2.20381 6.39425 2.41702C6.34923 2.63023 6.23812 2.82608 6.07496 2.97979C5.9118 3.13351 5.70392 3.23819 5.47761 3.2806C5.25129 3.32302 5.01672 3.30125 4.80354 3.21806C4.59036 3.13487 4.40815 2.99399 4.27995 2.81323C4.15176 2.63248 4.08333 2.41998 4.08333 2.20259C4.08333 1.91108 4.20625 1.63151 4.42504 1.42538C4.64383 1.21925 4.94058 1.10345 5.25 1.10345ZM13.4167 8.24784H12.1771C12.0486 7.77499 11.7567 7.35587 11.3474 7.05658C10.9381 6.75728 10.4348 6.59483 9.91667 6.59483C9.39857 6.59483 8.8952 6.75728 8.48593 7.05658C8.07666 7.35587 7.78476 7.77499 7.65625 8.24784H0.583333C0.428624 8.24784 0.280251 8.30575 0.170854 8.40881C0.0614583 8.51187 0 8.65166 0 8.79741C0 8.94317 0.0614583 9.08295 0.170854 9.18602C0.280251 9.28908 0.428624 9.34698 0.583333 9.34698H7.65625C7.78476 9.81984 8.07666 10.239 8.48593 10.5382C8.8952 10.8375 9.39857 11 9.91667 11C10.4348 11 10.9381 10.8375 11.3474 10.5382C11.7567 10.239 12.0486 9.81984 12.1771 9.34698H13.4167C13.5714 9.34698 13.7197 9.28908 13.8291 9.18602C13.9385 9.08295 14 8.94317 14 8.79741C14 8.65166 13.9385 8.51187 13.8291 8.40881C13.7197 8.30575 13.5714 8.24784 13.4167 8.24784ZM9.91667 9.89655C9.68592 9.89655 9.46036 9.83209 9.2685 9.71131C9.07664 9.59054 8.92711 9.41888 8.83881 9.21804C8.7505 9.01719 8.7274 8.79619 8.77242 8.58298C8.81743 8.36977 8.92855 8.17392 9.09171 8.02021C9.25487 7.86649 9.46275 7.76181 9.68906 7.7194C9.91537 7.67698 10.15 7.69875 10.3631 7.78194C10.5763 7.86513 10.7585 8.00601 10.8867 8.18676C11.0149 8.36752 11.0833 8.58002 11.0833 8.79741C11.0833 9.08892 10.9604 9.36849 10.7416 9.57462C10.5228 9.78075 10.2261 9.89655 9.91667 9.89655Z" fill="black"/>
</svg>
