<svg width="24" height="24" viewBox="0 0 24 24" fill="none" xmlns="http://www.w3.org/2000/svg">
<path d="M16.7031 2.77734C14.7672 2.77734 13.0722 3.60984 12.0156 5.01703C10.9591 3.60984 9.26406 2.77734 7.32812 2.77734C5.78709 2.77908 4.30966 3.39203 3.21999 4.4817C2.13031 5.57138 1.51736 7.04881 1.51562 8.58984C1.51563 15.1523 11.2459 20.4642 11.6603 20.6836C11.7695 20.7423 11.8916 20.7731 12.0156 20.7731C12.1396 20.7731 12.2617 20.7423 12.3709 20.6836C12.7853 20.4642 22.5156 15.1523 22.5156 8.58984C22.5139 7.04881 21.9009 5.57138 20.8113 4.4817C19.7216 3.39203 18.2442 2.77908 16.7031 2.77734ZM12.0156 19.1648C10.3038 18.1673 3.01562 13.6233 3.01562 8.58984C3.01711 7.44655 3.47194 6.35052 4.28037 5.54209C5.0888 4.73366 6.18484 4.27883 7.32812 4.27734C9.15156 4.27734 10.6825 5.24859 11.3219 6.80859C11.3784 6.94615 11.4745 7.06381 11.598 7.14661C11.7216 7.22941 11.8669 7.27362 12.0156 7.27362C12.1643 7.27362 12.3097 7.22941 12.4332 7.14661C12.5567 7.06381 12.6529 6.94615 12.7094 6.80859C13.3487 5.24578 14.8797 4.27734 16.7031 4.27734C17.8464 4.27883 18.9425 4.73366 19.7509 5.54209C20.5593 6.35052 21.0141 7.44655 21.0156 8.58984C21.0156 13.6158 13.7256 18.1664 12.0156 19.1648Z" fill="black"/>
</svg>
