<svg width="16" height="17" viewBox="0 0 16 17" fill="none" xmlns="http://www.w3.org/2000/svg">
<path d="M15.6215 3.50896L8.23692 0.546115C8.16193 0.515679 8.08138 0.5 8 0.5C7.91862 0.5 7.83807 0.515679 7.76308 0.546115L0.378469 3.50896C0.253534 3.55915 0.149269 3.6476 0.0818227 3.76062C0.0143765 3.87364 -0.0124873 4.00492 0.00539212 4.13412L1.23616 13.0227C1.2494 13.1186 1.28681 13.2099 1.34514 13.2886C1.40347 13.3674 1.48094 13.4312 1.57078 13.4745L7.72462 16.4374C7.81011 16.4786 7.9044 16.5 8 16.5C8.0956 16.5 8.18989 16.4786 8.27539 16.4374L14.4292 13.4745C14.5191 13.4312 14.5965 13.3674 14.6549 13.2886C14.7132 13.2099 14.7506 13.1186 14.7638 13.0227L15.9946 4.13412C16.0125 4.00492 15.9856 3.87364 15.9182 3.76062C15.8507 3.6476 15.7465 3.55915 15.6215 3.50896ZM13.5869 12.5545L8 15.2448L2.41308 12.5545L1.2877 4.42597L8 1.73496L14.7123 4.42597L13.5869 12.5545ZM7.46154 4.95335L4.38462 10.2865C4.34542 10.3546 4.32054 10.4294 4.31139 10.5068C4.30224 10.5841 4.309 10.6625 4.33129 10.7373C4.35357 10.8121 4.39095 10.882 4.44128 10.9429C4.49161 11.0039 4.55391 11.0546 4.62462 11.0924C4.69533 11.1301 4.77307 11.1541 4.8534 11.1629C4.93373 11.1717 5.01507 11.1652 5.09279 11.1437C5.1705 11.1223 5.24307 11.0863 5.30634 11.0378C5.36961 10.9894 5.42235 10.9294 5.46154 10.8613L6.30769 9.38874H9.69231L10.5385 10.8613C10.5777 10.9294 10.6304 10.9894 10.6937 11.0378C10.7569 11.0863 10.8295 11.1223 10.9072 11.1437C10.9849 11.1652 11.0663 11.1717 11.1466 11.1629C11.2269 11.1541 11.3047 11.1301 11.3754 11.0924C11.4461 11.0546 11.5084 11.0039 11.5587 10.9429C11.6091 10.882 11.6464 10.8121 11.6687 10.7373C11.691 10.6625 11.6978 10.5841 11.6886 10.5068C11.6795 10.4294 11.6546 10.3546 11.6154 10.2865L8.53846 4.95335C8.48524 4.86073 8.40723 4.78353 8.31254 4.72977C8.21785 4.67601 8.10993 4.64766 8 4.64766C7.89007 4.64766 7.78216 4.67601 7.68746 4.72977C7.59277 4.78353 7.51476 4.86073 7.46154 4.95335ZM9.00539 8.2036H6.99462L8 6.4607L9.00539 8.2036Z" fill="black"/>
</svg>
