<svg width="16" height="17" viewBox="0 0 16 17" fill="none" xmlns="http://www.w3.org/2000/svg">
<path d="M5.81818 0.5H1.45455C1.06878 0.5 0.698807 0.653246 0.426026 0.926026C0.153246 1.19881 0 1.56878 0 1.95455V6.31818C0 6.70395 0.153246 7.07392 0.426026 7.3467C0.698807 7.61948 1.06878 7.77273 1.45455 7.77273H5.81818C6.20395 7.77273 6.57392 7.61948 6.8467 7.3467C7.11948 7.07392 7.27273 6.70395 7.27273 6.31818V1.95455C7.27273 1.56878 7.11948 1.19881 6.8467 0.926026C6.57392 0.653246 6.20395 0.5 5.81818 0.5ZM5.81818 6.31818H1.45455V1.95455H5.81818V6.31818ZM14.5455 0.5H10.1818C9.79605 0.5 9.42608 0.653246 9.1533 0.926026C8.88052 1.19881 8.72727 1.56878 8.72727 1.95455V6.31818C8.72727 6.70395 8.88052 7.07392 9.1533 7.3467C9.42608 7.61948 9.79605 7.77273 10.1818 7.77273H14.5455C14.9312 7.77273 15.3012 7.61948 15.574 7.3467C15.8468 7.07392 16 6.70395 16 6.31818V1.95455C16 1.56878 15.8468 1.19881 15.574 0.926026C15.3012 0.653246 14.9312 0.5 14.5455 0.5ZM14.5455 6.31818H10.1818V1.95455H14.5455V6.31818ZM5.81818 9.22727H1.45455C1.06878 9.22727 0.698807 9.38052 0.426026 9.6533C0.153246 9.92608 0 10.296 0 10.6818V15.0455C0 15.4312 0.153246 15.8012 0.426026 16.074C0.698807 16.3468 1.06878 16.5 1.45455 16.5H5.81818C6.20395 16.5 6.57392 16.3468 6.8467 16.074C7.11948 15.8012 7.27273 15.4312 7.27273 15.0455V10.6818C7.27273 10.296 7.11948 9.92608 6.8467 9.6533C6.57392 9.38052 6.20395 9.22727 5.81818 9.22727ZM5.81818 15.0455H1.45455V10.6818H5.81818V15.0455ZM14.5455 9.22727H10.1818C9.79605 9.22727 9.42608 9.38052 9.1533 9.6533C8.88052 9.92608 8.72727 10.296 8.72727 10.6818V15.0455C8.72727 15.4312 8.88052 15.8012 9.1533 16.074C9.42608 16.3468 9.79605 16.5 10.1818 16.5H14.5455C14.9312 16.5 15.3012 16.3468 15.574 16.074C15.8468 15.8012 16 15.4312 16 15.0455V10.6818C16 10.296 15.8468 9.92608 15.574 9.6533C15.3012 9.38052 14.9312 9.22727 14.5455 9.22727ZM14.5455 15.0455H10.1818V10.6818H14.5455V15.0455Z" fill="black"/>
</svg>
