<svg width="19" height="15" viewBox="0 0 19 15" fill="none" xmlns="http://www.w3.org/2000/svg">
<path d="M18.6367 7.31152C18.6367 7.51044 18.5577 7.7012 18.417 7.84185C18.2764 7.98251 18.0856 8.06152 17.8867 8.06152H1.38672C1.18781 8.06152 0.997041 7.98251 0.856389 7.84185C0.715737 7.7012 0.636719 7.51044 0.636719 7.31152C0.636719 7.11261 0.715737 6.92185 0.856389 6.78119C0.997041 6.64054 1.18781 6.56152 1.38672 6.56152H17.8867C18.0856 6.56152 18.2764 6.64054 18.417 6.78119C18.5577 6.92185 18.6367 7.11261 18.6367 7.31152ZM1.38672 2.06152H17.8867C18.0856 2.06152 18.2764 1.98251 18.417 1.84185C18.5577 1.7012 18.6367 1.51044 18.6367 1.31152C18.6367 1.11261 18.5577 0.921846 18.417 0.781193C18.2764 0.640541 18.0856 0.561523 17.8867 0.561523H1.38672C1.18781 0.561523 0.997041 0.640541 0.856389 0.781193C0.715737 0.921846 0.636719 1.11261 0.636719 1.31152C0.636719 1.51044 0.715737 1.7012 0.856389 1.84185C0.997041 1.98251 1.18781 2.06152 1.38672 2.06152ZM17.8867 12.5615H1.38672C1.18781 12.5615 0.997041 12.6405 0.856389 12.7812C0.715737 12.9218 0.636719 13.1126 0.636719 13.3115C0.636719 13.5104 0.715737 13.7012 0.856389 13.8419C0.997041 13.9825 1.18781 14.0615 1.38672 14.0615H17.8867C18.0856 14.0615 18.2764 13.9825 18.417 13.8419C18.5577 13.7012 18.6367 13.5104 18.6367 13.3115C18.6367 13.1126 18.5577 12.9218 18.417 12.7812C18.2764 12.6405 18.0856 12.5615 17.8867 12.5615Z" fill="#616161"/>
</svg>
