<svg width="16" height="17" viewBox="0 0 16 17" fill="none" xmlns="http://www.w3.org/2000/svg">
<path d="M12.6667 0.5H3.33333C2.97971 0.5 2.64057 0.634859 2.39052 0.874911C2.14048 1.11496 2 1.44054 2 1.78003V15.8603C2.00006 15.9745 2.03196 16.0866 2.09238 16.185C2.15281 16.2834 2.23956 16.3645 2.34363 16.4198C2.44771 16.4752 2.56531 16.5028 2.68425 16.4998C2.80318 16.4968 2.91911 16.4633 3.02 16.4027L8 13.4147L12.9808 16.4027C13.0817 16.463 13.1975 16.4964 13.3164 16.4993C13.4352 16.5022 13.5526 16.4746 13.6566 16.4192C13.7605 16.3639 13.8472 16.2829 13.9075 16.1847C13.9679 16.0864 13.9998 15.9744 14 15.8603V1.78003C14 1.44054 13.8595 1.11496 13.6095 0.874911C13.3594 0.634859 13.0203 0.5 12.6667 0.5ZM12.6667 14.7059L8.3525 12.1178C8.24655 12.0543 8.12411 12.0205 7.99917 12.0205C7.87422 12.0205 7.75179 12.0543 7.64583 12.1178L3.33333 14.7059V1.78003H12.6667V14.7059Z" fill="black"/>
</svg>
