<svg width="16" height="17" viewBox="0 0 16 17" fill="none" xmlns="http://www.w3.org/2000/svg">
<g clip-path="url(#clip0_106_2967)">
<path d="M13.3286 2.69C12.6384 1.99956 11.8176 1.45073 10.913 1.07493C10.0084 0.699141 9.03786 0.503767 8.05694 0.5H7.99997C6.01086 0.5 4.10321 1.28265 2.69669 2.67578C1.29017 4.06891 0.5 5.95839 0.5 7.92857V11.9286C0.5 12.3832 0.682348 12.8193 1.00693 13.1408C1.33151 13.4622 1.77174 13.6429 2.23076 13.6429H3.3846C3.84363 13.6429 4.28386 13.4622 4.60844 13.1408C4.93302 12.8193 5.11537 12.3832 5.11537 11.9286V9.07143C5.11537 8.61677 4.93302 8.18074 4.60844 7.85925C4.28386 7.53775 3.84363 7.35714 3.3846 7.35714H1.6798C1.79106 6.16567 2.2429 5.03029 2.98236 4.08407C3.72183 3.13786 4.71827 2.42002 5.85491 2.01469C6.99155 1.60936 8.22128 1.53332 9.39999 1.79551C10.5787 2.05769 11.6575 2.64722 12.5101 3.495C13.552 4.53236 14.193 5.89933 14.3209 7.35714H12.6153C12.1563 7.35714 11.7161 7.53775 11.3915 7.85925C11.0669 8.18074 10.8846 8.61677 10.8846 9.07143V11.9286C10.8846 12.3832 11.0669 12.8193 11.3915 13.1408C11.7161 13.4622 12.1563 13.6429 12.6153 13.6429H14.3461C14.3461 14.0975 14.1638 14.5336 13.8392 14.855C13.5146 15.1765 13.0744 15.3571 12.6153 15.3571H8.57689C8.42388 15.3571 8.27714 15.4173 8.16895 15.5245C8.06075 15.6317 7.99997 15.777 7.99997 15.9286C7.99997 16.0801 8.06075 16.2255 8.16895 16.3326C8.27714 16.4398 8.42388 16.5 8.57689 16.5H12.6153C13.3804 16.5 14.1141 16.199 14.6551 15.6632C15.196 15.1273 15.4999 14.4006 15.4999 13.6429V7.92857C15.5037 6.95684 15.3138 5.99392 14.9412 5.09499C14.5686 4.19606 14.0206 3.37879 13.3286 2.69ZM3.3846 8.5C3.53761 8.5 3.68436 8.5602 3.79255 8.66737C3.90074 8.77453 3.96153 8.91988 3.96153 9.07143V11.9286C3.96153 12.0801 3.90074 12.2255 3.79255 12.3326C3.68436 12.4398 3.53761 12.5 3.3846 12.5H2.23076C2.07775 12.5 1.93101 12.4398 1.82282 12.3326C1.71462 12.2255 1.65384 12.0801 1.65384 11.9286V8.5H3.3846ZM12.6153 12.5C12.4623 12.5 12.3156 12.4398 12.2074 12.3326C12.0992 12.2255 12.0384 12.0801 12.0384 11.9286V9.07143C12.0384 8.91988 12.0992 8.77453 12.2074 8.66737C12.3156 8.5602 12.4623 8.5 12.6153 8.5H14.3461V12.5H12.6153Z" fill="black"/>
</g>
<defs>
<clipPath id="clip0_106_2967">
<rect width="16" height="16" fill="white" transform="translate(0 0.5)"/>
</clipPath>
</defs>
</svg>
