<svg width="83" height="20" viewBox="0 0 83 20" fill="none" xmlns="http://www.w3.org/2000/svg">
<g clip-path="url(#clip0_138_3171)">
<path d="M6.66645 16.8333C6.66645 17.0101 6.59621 17.1797 6.47119 17.3047C6.34617 17.4298 6.17661 17.5 5.9998 17.5H0.666645C0.48984 17.5 0.320276 17.4298 0.195256 17.3047C0.0702357 17.1797 0 17.0101 0 16.8333V2.16667C0 1.98986 0.0702357 1.82029 0.195256 1.69526C0.320276 1.57024 0.48984 1.5 0.666645 1.5H5.9998C6.17661 1.5 6.34617 1.57024 6.47119 1.69526C6.59621 1.82029 6.66645 1.98986 6.66645 2.16667C6.66645 2.34348 6.59621 2.51305 6.47119 2.63807C6.34617 2.7631 6.17661 2.83333 5.9998 2.83333H1.33329V16.1667H5.9998C6.17661 16.1667 6.34617 16.2369 6.47119 16.3619C6.59621 16.487 6.66645 16.6565 6.66645 16.8333ZM15.8045 9.02833L12.4713 5.695C12.3462 5.56991 12.1765 5.49963 11.9996 5.49963C11.8227 5.49963 11.653 5.56991 11.528 5.695C11.4029 5.82009 11.3326 5.98976 11.3326 6.16667C11.3326 6.34358 11.4029 6.51324 11.528 6.63833L13.7237 8.83333H5.9998C5.823 8.83333 5.65343 8.90357 5.52841 9.0286C5.40339 9.15362 5.33316 9.32319 5.33316 9.5C5.33316 9.67681 5.40339 9.84638 5.52841 9.97141C5.65343 10.0964 5.823 10.1667 5.9998 10.1667H13.7237L11.528 12.3617C11.4029 12.4868 11.3326 12.6564 11.3326 12.8333C11.3326 13.0102 11.4029 13.1799 11.528 13.305C11.653 13.4301 11.8227 13.5004 11.9996 13.5004C12.1765 13.5004 12.3462 13.4301 12.4713 13.305L15.8045 9.97167C15.8665 9.90975 15.9156 9.83623 15.9492 9.75529C15.9827 9.67436 16 9.58761 16 9.5C16 9.41239 15.9827 9.32564 15.9492 9.24471C15.9156 9.16377 15.8665 9.09025 15.8045 9.02833Z" fill="#FF3737"/>
</g>
<path d="M32.208 16H25.248V4.512H27.008V14.416H32.208V16ZM37.1251 16.16C34.7251 16.16 32.9651 14.272 32.9651 11.76C32.9651 9.248 34.7251 7.36 37.1251 7.36C39.5251 7.36 41.2851 9.248 41.2851 11.76C41.2851 14.272 39.5251 16.16 37.1251 16.16ZM37.1251 14.736C38.5171 14.736 39.6211 13.616 39.6211 11.76C39.6211 9.904 38.5171 8.8 37.1251 8.8C35.7331 8.8 34.6451 9.904 34.6451 11.76C34.6451 13.616 35.7331 14.736 37.1251 14.736ZM46.1683 19.264C43.9443 19.264 42.5043 18.08 42.4083 16.16H43.9763C44.0723 17.344 44.8403 17.984 46.1523 17.984C47.6083 17.984 48.3763 17.2 48.3763 15.744V14.208C47.8963 15.232 46.9363 15.824 45.7843 15.824C43.6723 15.824 42.1683 14.08 42.1683 11.584C42.1683 9.056 43.6083 7.36 45.7363 7.36C46.9523 7.36 47.9123 7.952 48.4883 9.024V7.52H49.9923V15.712C49.9923 17.936 48.5683 19.264 46.1683 19.264ZM43.8003 11.584C43.8003 13.344 44.6643 14.416 46.0723 14.416C47.4483 14.416 48.3763 13.312 48.3763 11.632C48.3763 9.872 47.4643 8.752 46.0723 8.752C44.6803 8.752 43.8003 9.84 43.8003 11.584ZM60.8691 16.24C57.5411 16.24 55.0291 13.632 55.0291 10.24C55.0291 6.848 57.5411 4.272 60.8691 4.272C64.1971 4.272 66.7091 6.848 66.7091 10.24C66.7091 13.632 64.1971 16.24 60.8691 16.24ZM60.8691 14.656C63.3011 14.656 64.8851 12.704 64.8851 10.24C64.8851 7.776 63.3011 5.856 60.8691 5.856C58.4371 5.856 56.8531 7.776 56.8531 10.24C56.8531 12.704 58.4371 14.656 60.8691 14.656ZM73.6973 12.512V7.52H75.3133V16H73.8093V14.656C73.3613 15.536 72.3693 16.16 71.2173 16.16C69.5053 16.16 68.3213 15.152 68.3213 12.976V7.52H69.9373V12.656C69.9373 14.128 70.6733 14.736 71.7293 14.736C72.8173 14.736 73.6973 13.84 73.6973 12.512ZM82.3415 14.432V15.856C81.8455 16.08 81.4135 16.16 80.9015 16.16C79.3335 16.16 78.2455 15.312 78.2455 13.44V8.896H76.3735V7.52H78.2455V5.008H79.8615V7.52H82.4215V8.896H79.8615V13.072C79.8615 14.24 80.4215 14.656 81.2855 14.656C81.6695 14.656 82.0055 14.592 82.3415 14.432Z" fill="#FF3737"/>
<defs>
<clipPath id="clip0_138_3171">
<rect width="16" height="16" fill="white" transform="translate(0 1.5)"/>
</clipPath>
</defs>
</svg>
