<svg width="16" height="17" viewBox="0 0 16 17" fill="none" xmlns="http://www.w3.org/2000/svg">
<path d="M14.99 6.70143C14.7207 6.42 14.4421 6.13 14.3371 5.875C14.24 5.64143 14.2343 5.25429 14.2286 4.87929C14.2179 4.18214 14.2064 3.39214 13.6571 2.84286C13.1079 2.29357 12.3179 2.28214 11.6207 2.27143C11.2457 2.26571 10.8586 2.26 10.625 2.16286C10.3707 2.05786 10.08 1.77929 9.79857 1.51C9.30571 1.03643 8.74571 0.5 8 0.5C7.25429 0.5 6.695 1.03643 6.20143 1.51C5.92 1.77929 5.63 2.05786 5.375 2.16286C5.14286 2.26 4.75429 2.26571 4.37929 2.27143C3.68214 2.28214 2.89214 2.29357 2.34286 2.84286C1.79357 3.39214 1.78571 4.18214 1.77143 4.87929C1.76571 5.25429 1.76 5.64143 1.66286 5.875C1.55786 6.12929 1.27929 6.42 1.01 6.70143C0.536429 7.195 0 7.75429 0 8.5C0 9.24571 0.536429 9.805 1.01 10.2986C1.27929 10.58 1.55786 10.87 1.66286 11.125C1.76 11.3586 1.76571 11.7457 1.77143 12.1207C1.78214 12.8179 1.79357 13.6079 2.34286 14.1571C2.89214 14.7064 3.68214 14.7179 4.37929 14.7286C4.75429 14.7343 5.14143 14.74 5.375 14.8371C5.62929 14.9421 5.92 15.2207 6.20143 15.49C6.69429 15.9636 7.25429 16.5 8 16.5C8.74571 16.5 9.305 15.9636 9.79857 15.49C10.08 15.2207 10.37 14.9421 10.625 14.8371C10.8586 14.74 11.2457 14.7343 11.6207 14.7286C12.3179 14.7179 13.1079 14.7064 13.6571 14.1571C14.2064 13.6079 14.2179 12.8179 14.2286 12.1207C14.2343 11.7457 14.24 11.3586 14.3371 11.125C14.4421 10.8707 14.7207 10.58 14.99 10.2986C15.4636 9.805 16 9.24571 16 8.5C16 7.75429 15.4636 7.195 14.99 6.70143ZM14.165 9.50786C13.8229 9.865 13.4686 10.2343 13.2807 10.6879C13.1007 11.1236 13.0929 11.6214 13.0857 12.1036C13.0786 12.6036 13.0707 13.1271 12.8486 13.3486C12.6264 13.57 12.1064 13.5786 11.6036 13.5857C11.1214 13.5929 10.6236 13.6007 10.1879 13.7807C9.73429 13.9686 9.365 14.3229 9.00786 14.665C8.65071 15.0071 8.28572 15.3571 8 15.3571C7.71429 15.3571 7.34643 15.0057 6.99214 14.665C6.63786 14.3243 6.26571 13.9686 5.81214 13.7807C5.37643 13.6007 4.87857 13.5929 4.39643 13.5857C3.89643 13.5786 3.37286 13.5707 3.15143 13.3486C2.93 13.1264 2.92143 12.6064 2.91429 12.1036C2.90714 11.6214 2.89929 11.1236 2.71929 10.6879C2.53143 10.2343 2.17714 9.865 1.835 9.50786C1.49286 9.15071 1.14286 8.78572 1.14286 8.5C1.14286 8.21429 1.49429 7.84714 1.835 7.49214C2.17571 7.13714 2.53143 6.76571 2.71929 6.31214C2.89929 5.87643 2.90714 5.37857 2.91429 4.89643C2.92143 4.39643 2.92929 3.87286 3.15143 3.65143C3.37357 3.43 3.89357 3.42143 4.39643 3.41429C4.87857 3.40714 5.37643 3.39929 5.81214 3.21929C6.26571 3.03143 6.635 2.67714 6.99214 2.335C7.34929 1.99286 7.71429 1.64286 8 1.64286C8.28572 1.64286 8.65357 1.99429 9.00786 2.335C9.36214 2.67571 9.73429 3.03143 10.1879 3.21929C10.6236 3.39929 11.1214 3.40714 11.6036 3.41429C12.1036 3.42143 12.6271 3.42929 12.8486 3.65143C13.07 3.87357 13.0786 4.39357 13.0857 4.89643C13.0929 5.37857 13.1007 5.87643 13.2807 6.31214C13.4686 6.76571 13.8229 7.135 14.165 7.49214C14.5071 7.84929 14.8571 8.21429 14.8571 8.5C14.8571 8.78572 14.5057 9.15286 14.165 9.50786ZM7.42857 6.21429C7.42857 5.87523 7.32803 5.54379 7.13966 5.26188C6.95129 4.97997 6.68356 4.76024 6.37031 4.63049C6.05707 4.50074 5.71238 4.46679 5.37985 4.53294C5.04731 4.59909 4.74185 4.76236 4.5021 5.0021C4.26236 5.24185 4.09909 5.54731 4.03294 5.87985C3.96679 6.21238 4.00074 6.55707 4.13049 6.87031C4.26024 7.18356 4.47997 7.45129 4.76188 7.63966C5.04379 7.82803 5.37523 7.92857 5.71429 7.92857C6.16894 7.92857 6.60498 7.74796 6.92647 7.42647C7.24796 7.10498 7.42857 6.66894 7.42857 6.21429ZM5.14286 6.21429C5.14286 6.10127 5.17637 5.99079 5.23916 5.89682C5.30195 5.80285 5.39119 5.7296 5.49561 5.68635C5.60002 5.6431 5.71492 5.63179 5.82577 5.65384C5.93661 5.67589 6.03843 5.73031 6.11835 5.81023C6.19826 5.89014 6.25269 5.99196 6.27473 6.10281C6.29678 6.21365 6.28547 6.32855 6.24222 6.43296C6.19897 6.53738 6.12573 6.62662 6.03175 6.68941C5.93778 6.7522 5.8273 6.78571 5.71429 6.78571C5.56273 6.78571 5.41739 6.72551 5.31023 6.61835C5.20306 6.51118 5.14286 6.36584 5.14286 6.21429ZM10.2857 9.07143C9.94666 9.07143 9.61522 9.17197 9.33331 9.36034C9.0514 9.54871 8.83167 9.81644 8.70192 10.1297C8.57217 10.4429 8.53822 10.7876 8.60437 11.1202C8.67051 11.4527 8.83378 11.7582 9.07353 11.9979C9.31328 12.2376 9.61873 12.4009 9.95127 12.4671C10.2838 12.5332 10.6285 12.4993 10.9417 12.3695C11.255 12.2398 11.5227 12.02 11.7111 11.7381C11.8995 11.4562 12 11.1248 12 10.7857C12 10.3311 11.8194 9.89502 11.4979 9.57353C11.1764 9.25204 10.7404 9.07143 10.2857 9.07143ZM10.2857 11.3571C10.1727 11.3571 10.0622 11.3236 9.96825 11.2608C9.87428 11.1981 9.80103 11.1088 9.75778 11.0044C9.71453 10.9 9.70322 10.7851 9.72527 10.6742C9.74731 10.5634 9.80174 10.4616 9.88165 10.3817C9.96157 10.3017 10.0634 10.2473 10.1742 10.2253C10.2851 10.2032 10.4 10.2145 10.5044 10.2578C10.6088 10.301 10.6981 10.3743 10.7608 10.4682C10.8236 10.5622 10.8571 10.6727 10.8571 10.7857C10.8571 10.9373 10.7969 11.0826 10.6898 11.1898C10.5826 11.2969 10.4373 11.3571 10.2857 11.3571ZM11.2614 6.04714L5.54714 11.7614C5.49405 11.8145 5.43102 11.8566 5.36166 11.8854C5.29229 11.9141 5.21794 11.9289 5.14286 11.9289C5.06777 11.9289 4.99343 11.9141 4.92406 11.8854C4.85469 11.8566 4.79166 11.8145 4.73857 11.7614C4.68548 11.7083 4.64337 11.6453 4.61463 11.5759C4.5859 11.5066 4.57111 11.4322 4.57111 11.3571C4.57111 11.2821 4.5859 11.2077 4.61463 11.1383C4.64337 11.069 4.68548 11.0059 4.73857 10.9529L10.4529 5.23857C10.5059 5.18548 10.569 5.14337 10.6383 5.11463C10.7077 5.0859 10.7821 5.07111 10.8571 5.07111C10.9322 5.07111 11.0066 5.0859 11.0759 5.11463C11.1453 5.14337 11.2083 5.18548 11.2614 5.23857C11.3145 5.29166 11.3566 5.35469 11.3854 5.42406C11.4141 5.49343 11.4289 5.56777 11.4289 5.64286C11.4289 5.71794 11.4141 5.79229 11.3854 5.86166C11.3566 5.93102 11.3145 5.99405 11.2614 6.04714Z" fill="black"/>
</svg>
