<svg width="16" height="15" viewBox="0 0 16 15" fill="none" xmlns="http://www.w3.org/2000/svg">
<path d="M8.9628 3.75002V7.14611L11.8533 8.83907C11.9989 8.92444 12.1038 9.06277 12.1449 9.22365C12.186 9.38452 12.16 9.55474 12.0726 9.69688C11.9851 9.83902 11.8434 9.94143 11.6786 9.98157C11.5139 10.0217 11.3395 9.99631 11.1939 9.91095L7.9929 8.03595C7.89816 7.98038 7.81977 7.90182 7.76536 7.8079C7.71094 7.71398 7.68237 7.60791 7.6824 7.50001V3.75002C7.6824 3.58426 7.74985 3.42529 7.86991 3.30808C7.98997 3.19087 8.15281 3.12502 8.3226 3.12502C8.49239 3.12502 8.65523 3.19087 8.77529 3.30808C8.89535 3.42529 8.9628 3.58426 8.9628 3.75002ZM8.3226 2.31337e-05C7.31268 -0.00243276 6.31229 0.190674 5.37932 0.568168C4.44636 0.945663 3.59934 1.50005 2.8873 2.19924C2.30552 2.77424 1.78856 3.32736 1.2804 3.90627V2.50002C1.2804 2.33426 1.21295 2.17529 1.09289 2.05808C0.972829 1.94087 0.809992 1.87502 0.6402 1.87502C0.470408 1.87502 0.307571 1.94087 0.18751 2.05808C0.0674494 2.17529 0 2.33426 0 2.50002V5.62502C0 5.79078 0.0674494 5.94975 0.18751 6.06696C0.307571 6.18417 0.470408 6.25001 0.6402 6.25001H3.8412C4.01099 6.25001 4.17383 6.18417 4.29389 6.06696C4.41395 5.94975 4.4814 5.79078 4.4814 5.62502C4.4814 5.45926 4.41395 5.30028 4.29389 5.18307C4.17383 5.06586 4.01099 5.00002 3.8412 5.00002H2.00062C2.5728 4.3422 3.14258 3.72267 3.79238 3.08049C4.68215 2.21186 5.81438 1.61847 7.04762 1.37446C8.28085 1.13045 9.5604 1.24664 10.7264 1.70853C11.8924 2.17041 12.8931 2.95749 13.6034 3.97143C14.3138 4.98537 14.7024 6.1812 14.7206 7.4095C14.7388 8.63781 14.3858 9.84411 13.7058 10.8777C13.0257 11.9113 12.0488 12.7263 10.897 13.2209C9.74516 13.7155 8.46959 13.8678 7.22964 13.6587C5.9897 13.4496 4.84035 12.8885 3.92523 12.0453C3.86406 11.9889 3.79212 11.9448 3.71349 11.9155C3.63486 11.8862 3.5511 11.8723 3.46698 11.8747C3.38286 11.877 3.30003 11.8955 3.22323 11.929C3.14642 11.9626 3.07714 12.0106 3.01934 12.0703C2.96154 12.13 2.91636 12.2003 2.88636 12.277C2.85637 12.3538 2.84215 12.4356 2.84453 12.5177C2.84691 12.5998 2.86583 12.6807 2.90022 12.7556C2.93461 12.8306 2.98379 12.8983 3.04495 12.9547C3.9568 13.7947 5.06538 14.4042 6.27396 14.7298C7.48254 15.0554 8.75438 15.0872 9.97848 14.8226C11.2026 14.558 12.3417 14.0049 13.2966 13.2117C14.2514 12.4184 14.9928 11.4091 15.4561 10.2717C15.9195 9.1344 16.0906 7.90365 15.9547 6.68688C15.8188 5.47011 15.3799 4.30431 14.6763 3.29122C13.9727 2.27813 13.0259 1.44854 11.9184 0.874852C10.8109 0.301167 9.57635 0.000819795 8.3226 2.31337e-05Z" fill="black"/>
</svg>
