<svg width="16" height="17" viewBox="0 0 16 17" fill="none" xmlns="http://www.w3.org/2000/svg">
<g clip-path="url(#clip0_106_2963)">
<path d="M7.99885 4.82969C7.27316 4.82969 6.56377 5.04489 5.96038 5.44806C5.35699 5.85123 4.8867 6.42427 4.60899 7.09473C4.33128 7.76518 4.25862 8.50292 4.40019 9.21467C4.54177 9.92642 4.89122 10.5802 5.40437 11.0933C5.91751 11.6065 6.57129 11.9559 7.28304 12.0975C7.99478 12.2391 8.73253 12.1664 9.40298 11.8887C10.0734 11.611 10.6465 11.1407 11.0496 10.5373C11.4528 9.93394 11.668 9.22454 11.668 8.49885C11.667 7.52604 11.2801 6.59336 10.5922 5.90548C9.90434 5.2176 8.97166 4.8307 7.99885 4.82969ZM7.99885 10.945C7.51506 10.945 7.04213 10.8015 6.63987 10.5327C6.23761 10.2639 5.92408 9.88191 5.73894 9.43494C5.5538 8.98797 5.50536 8.49614 5.59975 8.02164C5.69413 7.54714 5.9271 7.11129 6.26919 6.76919C6.61129 6.4271 7.04714 6.19413 7.52164 6.09975C7.99614 6.00536 8.48797 6.0538 8.93494 6.23894C9.38191 6.42408 9.76394 6.73761 10.0327 7.13987C10.3015 7.54213 10.445 8.01506 10.445 8.49885C10.445 9.1476 10.1872 9.76978 9.72851 10.2285C9.26978 10.6872 8.6476 10.945 7.99885 10.945ZM14.7256 8.66397C14.7287 8.55389 14.7287 8.44382 14.7256 8.33374L15.8661 6.90888C15.9259 6.83407 15.9673 6.74626 15.987 6.65252C16.0066 6.55878 16.004 6.46174 15.9793 6.36921C15.7923 5.66642 15.5126 4.99163 15.1476 4.36264C15.0998 4.28033 15.0335 4.21031 14.9538 4.15815C14.8742 4.106 14.7835 4.07315 14.689 4.06223L12.8758 3.86042C12.8004 3.78092 12.7239 3.70448 12.6465 3.6311L12.4324 1.81334C12.4214 1.71871 12.3885 1.62797 12.3362 1.54834C12.2839 1.46871 12.2137 1.4024 12.1312 1.35469C11.502 0.990334 10.8273 0.710933 10.1247 0.523779C10.0321 0.499163 9.93501 0.496645 9.84127 0.516429C9.74753 0.536213 9.65975 0.577744 9.585 0.637676L8.16397 1.77206C8.05389 1.77206 7.94382 1.77206 7.83374 1.77206L6.40888 0.633854C6.33407 0.574053 6.24626 0.53266 6.15252 0.51301C6.05878 0.493359 5.96174 0.496001 5.86921 0.520722C5.16653 0.708022 4.49179 0.987686 3.86264 1.3524C3.78033 1.40019 3.71031 1.46654 3.65815 1.54617C3.606 1.62579 3.57315 1.71649 3.56223 1.81104L3.36042 3.62728C3.28092 3.70321 3.20448 3.77965 3.1311 3.8566L1.31334 4.06528C1.21871 4.07629 1.12797 4.10926 1.04834 4.16155C0.96871 4.21384 0.902399 4.28401 0.854691 4.36646C0.490334 4.99569 0.210933 5.67042 0.0237793 6.37303C-0.000836977 6.46562 -0.00335472 6.5627 0.016429 6.65644C0.0362127 6.75018 0.0777444 6.83796 0.137676 6.91271L1.27206 8.33374C1.27206 8.44382 1.27206 8.55389 1.27206 8.66397L0.133854 10.0888C0.0740532 10.1636 0.0326602 10.2514 0.0130097 10.3452C-0.00664072 10.4389 -0.00399922 10.536 0.0207216 10.6285C0.207688 11.3313 0.487369 12.0061 0.852398 12.6351C0.900193 12.7174 0.966544 12.7874 1.04617 12.8396C1.12579 12.8917 1.21649 12.9246 1.31104 12.9355L3.12422 13.1373C3.20015 13.2168 3.27659 13.2932 3.35354 13.3666L3.56528 15.1844C3.57629 15.279 3.60926 15.3697 3.66155 15.4494C3.71384 15.529 3.78401 15.5953 3.86646 15.643C4.49569 16.0074 5.17042 16.2868 5.87303 16.4739C5.96562 16.4985 6.0627 16.5011 6.15644 16.4813C6.25018 16.4615 6.33796 16.42 6.41271 16.36L7.83374 15.2256C7.94382 15.2287 8.05389 15.2287 8.16397 15.2256L9.58882 16.3661C9.66363 16.4259 9.75145 16.4673 9.84518 16.487C9.93892 16.5066 10.036 16.504 10.1285 16.4793C10.8313 16.2923 11.5061 16.0126 12.1351 15.6476C12.2174 15.5998 12.2874 15.5335 12.3396 15.4538C12.3917 15.3742 12.4246 15.2835 12.4355 15.189L12.6373 13.3758C12.7168 13.3004 12.7932 13.2239 12.8666 13.1465L14.6844 12.9324C14.779 12.9214 14.8697 12.8885 14.9494 12.8362C15.029 12.7839 15.0953 12.7137 15.143 12.6312C15.5074 12.002 15.7868 11.3273 15.9739 10.6247C15.9985 10.5321 16.0011 10.435 15.9813 10.3413C15.9615 10.2475 15.92 10.1597 15.86 10.085L14.7256 8.66397ZM13.4949 8.1671C13.5079 8.38808 13.5079 8.60963 13.4949 8.83061C13.4858 8.9819 13.5332 9.13118 13.628 9.2495L14.7127 10.6048C14.5882 11.0004 14.4288 11.3841 14.2364 11.7514L12.5089 11.9471C12.3584 11.9638 12.2195 12.0357 12.119 12.1489C11.9719 12.3144 11.8152 12.4711 11.6497 12.6183C11.5365 12.7187 11.4646 12.8577 11.4479 13.0081L11.256 14.7341C10.8887 14.9266 10.505 15.086 10.1094 15.2104L8.75332 14.1257C8.64481 14.039 8.51002 13.9918 8.37112 13.9919H8.33443C8.11345 14.0049 7.8919 14.0049 7.67092 13.9919C7.51963 13.9828 7.37035 14.0302 7.25203 14.1249L5.89291 15.2104C5.49735 15.0859 5.11364 14.9265 4.74629 14.7341L4.55061 13.0089C4.53391 12.8584 4.462 12.7195 4.3488 12.619C4.18331 12.4719 4.0266 12.3152 3.87946 12.1497C3.77896 12.0365 3.64005 11.9646 3.48961 11.9479L1.76357 11.7552C1.57109 11.3879 1.41172 11.0042 1.28735 10.6086L2.37204 9.25256C2.46676 9.13424 2.51416 8.98495 2.50505 8.83366C2.49205 8.61269 2.49205 8.39114 2.50505 8.17016C2.51416 8.01887 2.46676 7.86959 2.37204 7.75126L1.28735 6.39291C1.41181 5.99735 1.57118 5.61364 1.76357 5.24629L3.48884 5.05061C3.63929 5.03391 3.7782 4.962 3.87869 4.8488C4.02583 4.68331 4.18255 4.5266 4.34804 4.37946C4.46169 4.2789 4.53389 4.13967 4.55061 3.98884L4.74247 2.26357C5.10977 2.07109 5.49349 1.91172 5.88909 1.78735L7.24515 2.87204C7.36347 2.96676 7.51275 3.01416 7.66404 3.00505C7.88502 2.99205 8.10657 2.99205 8.32755 3.00505C8.47884 3.01416 8.62812 2.96676 8.74644 2.87204L10.1048 1.78735C10.5004 1.91181 10.8841 2.07118 11.2514 2.26357L11.4471 3.98884C11.4638 4.13929 11.5357 4.2782 11.6489 4.37869C11.8144 4.52583 11.9711 4.68255 12.1183 4.84804C12.2187 4.96124 12.3577 5.03314 12.5081 5.04984L14.2341 5.24171C14.4266 5.60901 14.586 5.99273 14.7104 6.38832L13.6257 7.74438C13.53 7.8637 13.4826 8.01452 13.4927 8.1671H13.4949Z" fill="black"/>
</g>
<defs>
<clipPath id="clip0_106_2963">
<rect width="16" height="16" fill="white" transform="translate(0 0.5)"/>
</clipPath>
</defs>
</svg>
