<svg width="16" height="17" viewBox="0 0 16 17" fill="none" xmlns="http://www.w3.org/2000/svg">
<path d="M16 8.49993C16 8.66869 15.9298 8.83054 15.8047 8.94988C15.6797 9.06921 15.5102 9.13625 15.3333 9.13625H8.00019C7.82338 9.13625 7.65381 9.06921 7.52879 8.94988C7.40377 8.83054 7.33353 8.66869 7.33353 8.49993C7.33353 8.33116 7.40377 8.16931 7.52879 8.04998C7.65381 7.93064 7.82338 7.8636 8.00019 7.8636H15.3333C15.5102 7.8636 15.6797 7.93064 15.8047 8.04998C15.9298 8.16931 16 8.33116 16 8.49993ZM8.00019 4.04565H15.3333C15.5102 4.04565 15.6797 3.97861 15.8047 3.85928C15.9298 3.73994 16 3.57809 16 3.40933C16 3.24056 15.9298 3.07871 15.8047 2.95938C15.6797 2.84004 15.5102 2.773 15.3333 2.773H8.00019C7.82338 2.773 7.65381 2.84004 7.52879 2.95938C7.40377 3.07871 7.33353 3.24056 7.33353 3.40933C7.33353 3.57809 7.40377 3.73994 7.52879 3.85928C7.65381 3.97861 7.82338 4.04565 8.00019 4.04565ZM15.3333 12.9542H8.00019C7.82338 12.9542 7.65381 13.0212 7.52879 13.1406C7.40377 13.2599 7.33353 13.4218 7.33353 13.5905C7.33353 13.7593 7.40377 13.9211 7.52879 14.0405C7.65381 14.1598 7.82338 14.2269 8.00019 14.2269H15.3333C15.5102 14.2269 15.6797 14.1598 15.8047 14.0405C15.9298 13.9211 16 13.7593 16 13.5905C16 13.4218 15.9298 13.2599 15.8047 13.1406C15.6797 13.0212 15.5102 12.9542 15.3333 12.9542ZM4.19527 1.68648L2.00032 3.78237L1.13868 2.95913C1.01359 2.83973 0.843927 2.77265 0.667022 2.77265C0.490117 2.77265 0.320457 2.83973 0.195366 2.95913C0.0702753 3.07853 1.31805e-09 3.24047 0 3.40933C-1.31805e-09 3.57819 0.0702753 3.74013 0.195366 3.85953L1.52867 5.13218C1.59058 5.19134 1.66411 5.23828 1.74504 5.2703C1.82597 5.30232 1.91272 5.3188 2.00032 5.3188C2.08793 5.3188 2.17468 5.30232 2.25561 5.2703C2.33654 5.23828 2.41007 5.19134 2.47198 5.13218L5.13859 2.58688C5.26368 2.46748 5.33395 2.30554 5.33395 2.13668C5.33395 1.96782 5.26368 1.80588 5.13859 1.68648C5.01349 1.56708 4.84383 1.5 4.66693 1.5C4.49002 1.5 4.32036 1.56708 4.19527 1.68648ZM4.19527 6.77708L2.00032 8.87297L1.13868 8.04973C1.01359 7.93033 0.843927 7.86325 0.667022 7.86325C0.490117 7.86325 0.320457 7.93033 0.195366 8.04973C0.0702753 8.16913 0 8.33107 0 8.49993C0 8.58354 0.017253 8.66633 0.050774 8.74357C0.084295 8.82082 0.133427 8.89101 0.195366 8.95013L1.52867 10.2228C1.59058 10.2819 1.66411 10.3289 1.74504 10.3609C1.82597 10.3929 1.91272 10.4094 2.00032 10.4094C2.08793 10.4094 2.17468 10.3929 2.25561 10.3609C2.33654 10.3289 2.41007 10.2819 2.47198 10.2228L5.13859 7.67748C5.26368 7.55808 5.33395 7.39613 5.33395 7.22728C5.33395 7.05842 5.26368 6.89648 5.13859 6.77708C5.01349 6.65768 4.84383 6.5906 4.66693 6.5906C4.49002 6.5906 4.32036 6.65768 4.19527 6.77708ZM4.19527 11.8677L2.00032 13.9636L1.13868 13.1403C1.07674 13.0812 1.00321 13.0343 0.92228 13.0023C0.841353 12.9703 0.754616 12.9538 0.667022 12.9538C0.579427 12.9538 0.49269 12.9703 0.411763 13.0023C0.330837 13.0343 0.257305 13.0812 0.195366 13.1403C0.133427 13.1994 0.084295 13.2696 0.050774 13.3469C0.017253 13.4241 0 13.5069 0 13.5905C0 13.6741 0.017253 13.7569 0.050774 13.8342C0.084295 13.9114 0.133427 13.9816 0.195366 14.0407L1.52867 15.3134C1.59058 15.3725 1.66411 15.4195 1.74504 15.4515C1.82597 15.4835 1.91272 15.5 2.00032 15.5C2.08793 15.5 2.17468 15.4835 2.25561 15.4515C2.33654 15.4195 2.41007 15.3725 2.47198 15.3134L5.13859 12.7681C5.26368 12.6487 5.33395 12.4867 5.33395 12.3179C5.33395 12.149 5.26368 11.9871 5.13859 11.8677C5.01349 11.7483 4.84383 11.6812 4.66693 11.6812C4.49002 11.6812 4.32036 11.7483 4.19527 11.8677Z" fill="black"/>
</svg>
