<svg width="14" height="15" viewBox="0 0 14 15" fill="none" xmlns="http://www.w3.org/2000/svg">
<path d="M14 7.66797C14 7.82268 13.9385 7.97105 13.8291 8.08045C13.7197 8.18984 13.5714 8.2513 13.4167 8.2513H7.58333V14.0846C7.58333 14.2393 7.52188 14.3877 7.41248 14.4971C7.30308 14.6065 7.15471 14.668 7 14.668C6.84529 14.668 6.69692 14.6065 6.58752 14.4971C6.47812 14.3877 6.41667 14.2393 6.41667 14.0846V8.2513H0.583333C0.428624 8.2513 0.280251 8.18984 0.170854 8.08045C0.0614583 7.97105 0 7.82268 0 7.66797C0 7.51326 0.0614583 7.36489 0.170854 7.25549C0.280251 7.14609 0.428624 7.08464 0.583333 7.08464H6.41667V1.2513C6.41667 1.09659 6.47812 0.948219 6.58752 0.838823C6.69692 0.729427 6.84529 0.667969 7 0.667969C7.15471 0.667969 7.30308 0.729427 7.41248 0.838823C7.52188 0.948219 7.58333 1.09659 7.58333 1.2513V7.08464H13.4167C13.5714 7.08464 13.7197 7.14609 13.8291 7.25549C13.9385 7.36489 14 7.51326 14 7.66797Z" fill="#455625"/>
</svg>
