<svg width="15" height="15" viewBox="0 0 15 15" fill="none" xmlns="http://www.w3.org/2000/svg">
<path d="M13.4062 0.28125H1.59375C1.24565 0.28125 0.911814 0.419531 0.665672 0.665672C0.419531 0.911814 0.28125 1.24565 0.28125 1.59375V13.4062C0.28125 13.7543 0.419531 14.0882 0.665672 14.3343C0.911814 14.5805 1.24565 14.7188 1.59375 14.7188H13.4062C13.7543 14.7188 14.0882 14.5805 14.3343 14.3343C14.5805 14.0882 14.7188 13.7543 14.7188 13.4062V1.59375C14.7188 1.24565 14.5805 0.911814 14.3343 0.665672C14.0882 0.419531 13.7543 0.28125 13.4062 0.28125ZM13.4062 6.84375H8.15625V1.59375H13.4062V6.84375ZM6.84375 1.59375V6.84375H1.59375V1.59375H6.84375ZM1.59375 8.15625H6.84375V13.4062H1.59375V8.15625ZM13.4062 13.4062H8.15625V8.15625H13.4062V13.4062Z" fill="black"/>
</svg>
