<svg width="21" height="21" viewBox="0 0 21 21" fill="none" xmlns="http://www.w3.org/2000/svg">
<path d="M17.0625 11.1562H3.9375C3.5894 11.1562 3.25556 11.2945 3.00942 11.5407C2.76328 11.7868 2.625 12.1207 2.625 12.4688V15.75C2.625 16.0981 2.76328 16.4319 3.00942 16.6781C3.25556 16.9242 3.5894 17.0625 3.9375 17.0625H17.0625C17.4106 17.0625 17.7444 16.9242 17.9906 16.6781C18.2367 16.4319 18.375 16.0981 18.375 15.75V12.4688C18.375 12.1207 18.2367 11.7868 17.9906 11.5407C17.7444 11.2945 17.4106 11.1562 17.0625 11.1562ZM17.0625 15.75H3.9375V12.4688H17.0625V15.75ZM17.0625 3.9375H3.9375C3.5894 3.9375 3.25556 4.07578 3.00942 4.32192C2.76328 4.56806 2.625 4.9019 2.625 5.25V8.53125C2.625 8.87935 2.76328 9.21319 3.00942 9.45933C3.25556 9.70547 3.5894 9.84375 3.9375 9.84375H17.0625C17.4106 9.84375 17.7444 9.70547 17.9906 9.45933C18.2367 9.21319 18.375 8.87935 18.375 8.53125V5.25C18.375 4.9019 18.2367 4.56806 17.9906 4.32192C17.7444 4.07578 17.4106 3.9375 17.0625 3.9375ZM17.0625 8.53125H3.9375V5.25H17.0625V8.53125Z" fill="black"/>
</svg>
