<svg width="14" height="14" viewBox="0 0 14 14" fill="none" xmlns="http://www.w3.org/2000/svg">
<path d="M13.3539 12.6463L10.2245 9.51752C11.1315 8.42859 11.5838 7.03189 11.4873 5.61798C11.3908 4.20407 10.7528 2.88181 9.70623 1.92625C8.65963 0.9707 7.28492 0.455429 5.86808 0.487629C4.45125 0.519829 3.10137 1.09702 2.09926 2.09913C1.09714 3.10125 0.519951 4.45113 0.487751 5.86796C0.455551 7.2848 0.970822 8.65951 1.92638 9.70611C2.88193 10.7527 4.20419 11.3906 5.6181 11.4872C7.03201 11.5837 8.42871 11.1314 9.51764 10.2244L12.6464 13.3538C12.6928 13.4002 12.748 13.4371 12.8087 13.4622C12.8694 13.4874 12.9344 13.5003 13.0001 13.5003C13.0658 13.5003 13.1309 13.4874 13.1916 13.4622C13.2523 13.4371 13.3074 13.4002 13.3539 13.3538C13.4003 13.3073 13.4372 13.2522 13.4623 13.1915C13.4875 13.1308 13.5004 13.0657 13.5004 13C13.5004 12.9343 13.4875 12.8693 13.4623 12.8086C13.4372 12.7479 13.4003 12.6927 13.3539 12.6463ZM1.50014 6.00002C1.50014 5.11001 1.76406 4.23998 2.25853 3.49995C2.753 2.75993 3.4558 2.18316 4.27807 1.84256C5.10034 1.50197 6.00514 1.41285 6.87805 1.58649C7.75096 1.76012 8.55279 2.1887 9.18212 2.81804C9.81146 3.44738 10.24 4.2492 10.4137 5.12211C10.5873 5.99503 10.4982 6.89983 10.1576 7.7221C9.81701 8.54436 9.24023 9.24717 8.50021 9.74164C7.76019 10.2361 6.89016 10.5 6.00014 10.5C4.80708 10.4987 3.66325 10.0242 2.81962 9.18054C1.976 8.33691 1.50147 7.19309 1.50014 6.00002Z" fill="#7E7E7E"/>
</svg>
