<svg width="20" height="22" viewBox="0 0 20 22" fill="none" xmlns="http://www.w3.org/2000/svg">
<path d="M18.4832 9.70531L2.75003 0.702501C2.52067 0.56875 2.25992 0.498276 1.99441 0.498276C1.7289 0.498276 1.46815 0.56875 1.23878 0.702501C1.01281 0.832075 0.825323 1.01937 0.695517 1.24521C0.565711 1.47105 0.498249 1.72733 0.500035 1.98781V20.0122C0.499291 20.2724 0.567635 20.5282 0.698086 20.7533C0.828536 20.9785 1.01642 21.165 1.24253 21.2938C1.4719 21.4275 1.73265 21.498 1.99816 21.498C2.26367 21.498 2.52442 21.4275 2.75378 21.2938L18.4832 12.2938C18.7153 12.1665 18.9089 11.9792 19.0437 11.7514C19.1786 11.5236 19.2498 11.2638 19.2498 10.9991C19.2498 10.7344 19.1786 10.4745 19.0437 10.2467C18.9089 10.019 18.7153 9.83165 18.4832 9.70438V9.70531ZM2.00003 18.9378V3.06219L9.93972 11L2.00003 18.9378ZM11 12.0603L12.7738 13.8341L4.47691 18.5834L11 12.0603ZM4.47503 3.41563L12.7747 8.16594L11 9.93969L4.47503 3.41563ZM14.1228 13.0625L12.0603 11L14.1228 8.9375L17.7257 11L14.1228 13.0625Z" fill="#648F00"/>
</svg>
