<svg width="55" height="40" viewBox="0 0 55 40" fill="none" xmlns="http://www.w3.org/2000/svg">
<path d="M54.2041 4.04741L19.2041 39.0474C19.001 39.2508 18.7597 39.4121 18.4942 39.5222C18.2286 39.6323 17.944 39.689 17.6565 39.689C17.369 39.689 17.0844 39.6323 16.8188 39.5222C16.5532 39.4121 16.312 39.2508 16.1088 39.0474L0.796333 23.7349C0.38587 23.3244 0.155273 22.7677 0.155273 22.1873C0.155273 21.6068 0.38587 21.0501 0.796333 20.6396C1.2068 20.2291 1.76351 19.9985 2.34399 19.9985C2.92447 19.9985 3.48118 20.2291 3.89165 20.6396L17.6565 34.4072L51.1088 0.952094C51.5193 0.54163 52.076 0.311035 52.6565 0.311035C53.237 0.311035 53.7937 0.54163 54.2041 0.952094C54.6146 1.36256 54.8452 1.91927 54.8452 2.49975C54.8452 3.08024 54.6146 3.63694 54.2041 4.04741Z" fill="white"/>
</svg>
