<svg width="163" height="40" viewBox="0 0 163 40" fill="none" xmlns="http://www.w3.org/2000/svg">
<g clip-path="url(#clip0_48_2588)">
<mask id="mask0_48_2588" style="mask-type:luminance" maskUnits="userSpaceOnUse" x="0" y="0" width="163" height="40">
<path d="M163 0H0V40H163V0Z" fill="white"/>
</mask>
<g mask="url(#mask0_48_2588)">
<path d="M40.0739 2.9656C39.1567 1.5879 37.6601 0.665542 35.5903 0.204363C33.5688 -0.250979 31.6318 0.0642575 29.7793 1.15007C27.9267 2.23589 26.3759 3.73618 25.1147 5.65095C23.6423 7.88095 22.9906 9.64394 23.1656 10.9282C23.3406 12.2125 24.0768 13.0006 25.3802 13.2925C26.2974 13.4968 27.5948 13.3334 29.2784 12.7963C30.962 12.2592 32.4525 11.547 33.7499 10.6714C34.3835 10.8815 34.9205 11.2435 35.361 11.7455C35.8076 12.2476 36.1033 12.878 36.2602 13.6486C36.4171 14.4134 36.3507 15.3357 36.061 16.404C35.7714 17.4723 35.186 18.6807 34.299 20.0176C32.4042 22.8897 29.9181 25.038 26.8466 26.4741C23.7751 27.9043 20.5226 28.2429 17.1011 27.4723C13.5831 26.6842 10.9159 24.9855 9.09349 22.376C7.27112 19.7724 5.93149 16.7251 5.08065 13.24C4.74272 11.8448 4.54962 10.9808 4.31428 9.498L0.0781667 9.56805C0.0781667 9.56805 -0.133036 23.1232 0.132476 26.404C0.397988 29.6848 1.13418 32.5395 2.32295 34.9679C3.51171 37.3906 5.65391 38.9551 8.73747 39.6439C11.1452 40.1869 13.5529 40.0993 15.9546 39.3988C18.3562 38.6924 20.7096 37.5365 23.0148 35.9312C25.3199 34.3258 27.5466 32.3351 29.6887 29.9592C31.837 27.5832 33.8344 24.9971 35.6869 22.1892C37.4127 19.5739 38.7644 17.0403 39.748 14.5885C40.7316 12.1366 41.2566 9.92999 41.3351 7.96852C41.4075 6.00705 40.9911 4.33746 40.0739 2.95976" fill="white"/>
<path d="M47.3151 23.742C47.3151 24.6936 47.2246 25.0555 47.1703 25.184C47.0858 25.3883 46.935 25.5517 46.7117 25.686C46.4764 25.8261 46.1988 25.8962 45.8548 25.8962C45.541 25.8962 45.2755 25.8378 45.0643 25.7093C44.8592 25.5868 44.7143 25.435 44.6299 25.2365C44.5635 25.0847 44.479 24.7461 44.479 24.0106V16.1355H41.3472V23.4268C41.3472 24.8746 41.498 25.8903 41.8118 26.5325C42.1256 27.1805 42.6506 27.7175 43.3747 28.1437C44.0928 28.564 44.9497 28.78 45.9091 28.78C46.6393 28.78 47.291 28.6691 47.8522 28.4472C48.4134 28.2254 48.9203 27.8751 49.3487 27.414C49.7772 26.9528 50.0728 26.4683 50.2297 25.9604C50.3806 25.4642 50.453 24.6352 50.453 23.4268V16.1355H47.3212V23.7362L47.3151 23.742Z" fill="#455625"/>
<path d="M60.3555 23.0531L55.7091 16.1412H52.8608V28.7799H55.9866V21.8914L60.6271 28.7799H63.4813V16.1412H60.3555V23.0531Z" fill="#455625"/>
<path d="M68.9182 16.1412H65.8105V28.7857H68.9182V16.1412Z" fill="#455625"/>
<path d="M70.0283 19.1302H72.2067V28.78H75.3687V19.1302H77.6075V16.1355H70.0283V19.1302Z" fill="#455625"/>
<path d="M78.9048 28.7799H86.3995V25.7968H82.0185V23.4325H86.3995V20.502H82.0185V19.1126H86.3995V16.1412H78.9048V28.7799Z" fill="#455625"/>
<path d="M95.6019 16.8185C94.6666 16.3573 93.3088 16.1355 91.4442 16.1355H88.2822V28.78H91.4925C93.1399 28.78 94.2743 28.6807 94.9623 28.4706C95.6622 28.2604 96.32 27.881 96.9174 27.3322C97.5088 26.7893 97.9794 26.1005 98.3174 25.2832C98.6492 24.4718 98.8182 23.5786 98.8182 22.6212C98.8182 21.2727 98.5165 20.076 97.9251 19.0544C97.3277 18.0269 96.5493 17.2739 95.62 16.8127M92.0959 25.8028H91.402V19.0719H91.8003C93.1399 19.0719 94.1114 19.3521 94.6847 19.9008C95.3424 20.5255 95.6622 21.4011 95.6622 22.5628C95.6622 23.3159 95.5234 23.9522 95.2459 24.4542C94.9804 24.9388 94.6424 25.289 94.2321 25.4875C93.8097 25.6977 93.0856 25.8028 92.0839 25.8028" fill="#455625"/>
<path d="M104.768 28.7799H107.876V23.4325H111.647V20.502H107.876V19.1068H111.647V16.1412H104.768V28.7799Z" fill="#455625"/>
<path d="M119.613 16.1355C118.4 16.1355 117.253 16.4215 116.203 16.982C115.153 17.5424 114.315 18.313 113.717 19.2762C113.114 20.2394 112.812 21.3077 112.812 22.4519C112.812 24.1624 113.464 25.6568 114.749 26.9002C116.04 28.1495 117.682 28.78 119.631 28.78C121.58 28.78 123.095 28.167 124.398 26.9528C125.701 25.7385 126.365 24.2382 126.365 22.4928C126.365 20.7473 125.695 19.212 124.374 17.9861C123.052 16.7601 121.447 16.1355 119.613 16.1355ZM119.631 25.9604C118.738 25.9604 117.965 25.7093 117.271 25.184C116.384 24.5185 115.956 23.6428 115.956 22.4928C115.956 21.4595 116.3 20.6305 117.006 19.965C117.712 19.2995 118.557 18.9785 119.595 18.9785C120.633 18.9785 121.459 19.3112 122.177 19.9884C122.895 20.6714 123.245 21.4887 123.245 22.4753C123.245 23.4618 122.901 24.2791 122.189 24.9563C121.477 25.6276 120.645 25.9545 119.637 25.9545" fill="#455625"/>
<path d="M134.451 16.1355C133.238 16.1355 132.092 16.4215 131.042 16.982C129.992 17.5424 129.153 18.313 128.556 19.2762C127.958 20.2394 127.65 21.3077 127.65 22.4519C127.65 24.1624 128.302 25.6568 129.587 26.9002C130.879 28.1495 132.52 28.78 134.469 28.78C136.418 28.78 137.933 28.167 139.236 26.9528C140.54 25.7385 141.204 24.2382 141.204 22.4928C141.204 20.7473 140.534 19.212 139.212 17.9861C137.891 16.7601 136.292 16.1355 134.451 16.1355ZM134.469 25.9604C133.57 25.9604 132.804 25.7093 132.11 25.184C131.223 24.5185 130.794 23.6428 130.794 22.4928C130.794 21.4537 131.138 20.6305 131.844 19.965C132.55 19.2995 133.395 18.9785 134.427 18.9785C135.459 18.9785 136.298 19.3112 137.01 19.9884C137.728 20.6714 138.078 21.4828 138.078 22.4753C138.078 23.4677 137.728 24.2791 137.022 24.9563C136.31 25.6276 135.477 25.9545 134.469 25.9545" fill="#455625"/>
<path d="M150.424 16.8185C149.489 16.3573 148.131 16.1355 146.266 16.1355H143.104V28.78H146.309C147.956 28.78 149.091 28.6807 149.778 28.4706C150.478 28.2604 151.136 27.881 151.728 27.3322C152.319 26.7893 152.79 26.1005 153.128 25.2832C153.459 24.4718 153.628 23.5786 153.628 22.6212C153.628 21.2727 153.327 20.076 152.735 19.0544C152.138 18.0269 151.359 17.2739 150.424 16.8127M146.906 25.8028H146.212V19.0719H146.61C147.95 19.0719 148.922 19.3521 149.495 19.9008C150.153 20.5255 150.472 21.4011 150.472 22.5628C150.472 23.3159 150.334 23.9522 150.062 24.4542C149.791 24.9504 149.459 25.289 149.048 25.4875C148.626 25.6977 147.902 25.8028 146.9 25.8028" fill="#455625"/>
<path d="M162.662 23.7303C162.444 23.2925 162.082 22.8255 161.575 22.3584C161.376 22.1716 160.839 21.7338 159.928 21.0333C158.769 20.1343 158.389 19.7723 158.275 19.6381C158.184 19.5272 158.148 19.4279 158.148 19.317C158.148 19.2878 158.148 19.2002 158.299 19.0835C158.419 18.9901 158.582 18.9434 158.8 18.9434C159.294 18.9434 159.807 19.2878 160.338 19.965L160.592 20.2919L162.939 18.3771L162.686 18.1027C161.998 17.3614 161.37 16.8652 160.767 16.5849C160.157 16.2989 159.512 16.153 158.836 16.153C157.78 16.153 156.881 16.4682 156.163 17.0987C155.432 17.7291 155.064 18.4997 155.064 19.387C155.064 20 155.282 20.6188 155.716 21.2259C156.132 21.8097 157.007 22.5978 158.389 23.6427C159.228 24.2732 159.554 24.6001 159.687 24.7577C159.844 24.9504 159.922 25.1372 159.922 25.3123C159.922 25.4232 159.892 25.5925 159.65 25.7852C159.451 25.9428 159.204 26.0245 158.896 26.0245C158.287 26.0245 157.713 25.5809 157.201 24.711L157.007 24.3783L154.376 25.8436L154.539 26.1471C155.028 27.0461 155.638 27.7233 156.344 28.1553C157.056 28.5931 157.901 28.8091 158.848 28.8091C160.067 28.8091 161.075 28.4705 161.841 27.7992C162.613 27.122 163.006 26.258 163.006 25.2306C163.006 24.7052 162.897 24.209 162.674 23.7595" fill="#455625"/>
<path d="M49.3127 33.4092L48.2144 34.3899C47.4662 33.6486 46.6334 33.2749 45.6981 33.2749C44.9136 33.2749 44.2499 33.526 43.7128 34.0338C43.1758 34.5417 42.9042 35.1664 42.9042 35.9078C42.9042 36.4273 43.0189 36.8826 43.2602 37.2855C43.5016 37.6883 43.8335 38.0035 44.274 38.2312C44.7085 38.4588 45.1912 38.5756 45.7283 38.5756C46.1809 38.5756 46.5972 38.4939 46.9774 38.3362C47.3515 38.1728 47.7679 37.8809 48.2144 37.4606L49.2765 38.5055C48.667 39.066 48.0937 39.4512 47.5567 39.6672C47.0136 39.8832 46.3981 39.9883 45.7041 39.9883C44.4249 39.9883 43.3809 39.6089 42.5663 38.8441C41.7516 38.0794 41.3413 37.0986 41.3413 35.9019C41.3413 35.1313 41.5284 34.4425 41.8965 33.8412C42.2706 33.2399 42.8016 32.7554 43.4895 32.3876C44.1835 32.0257 44.9257 31.8389 45.7222 31.8389C46.3981 31.8389 47.0558 31.9731 47.6834 32.2475C48.311 32.516 48.8541 32.9013 49.3067 33.3975" fill="white"/>
<path d="M56.6383 31.8506H58.2253L61.3873 39.9942H59.758L59.1184 38.3129H55.7633L55.0935 39.9942H53.4702L56.6443 31.8506H56.6383ZM57.4408 34.0105L56.3365 36.8068H58.533L57.4348 34.0105H57.4408Z" fill="white"/>
<path d="M70.3604 33.0999L69.2018 34.069C68.7915 33.5319 68.3812 33.2692 67.9588 33.2692C67.7536 33.2692 67.5846 33.3217 67.4579 33.4268C67.3251 33.5319 67.2648 33.6486 67.2648 33.7771C67.2648 33.9055 67.3131 34.0281 67.4036 34.1448C67.5303 34.3025 67.9165 34.6352 68.5501 35.1431C69.1475 35.616 69.5096 35.9137 69.6363 36.0304C69.9561 36.334 70.1794 36.62 70.3122 36.9002C70.4449 37.1746 70.5113 37.4782 70.5113 37.8051C70.5113 38.4414 70.2759 38.9668 69.8113 39.3813C69.3467 39.7958 68.7372 40.0059 67.9889 40.0059C67.4036 40.0059 66.8907 39.8716 66.4562 39.5973C66.0217 39.3287 65.6476 38.9026 65.3398 38.3247L66.6553 37.5774C67.0476 38.2604 67.5062 38.6049 68.0191 38.6049C68.2846 38.6049 68.5139 38.529 68.6949 38.383C68.876 38.2371 68.9665 38.0678 68.9665 37.8693C68.9665 37.6942 68.9001 37.519 68.7613 37.3439C68.6225 37.1688 68.3148 36.9002 67.8501 36.5383C66.9571 35.8495 66.3778 35.3182 66.1183 34.9446C65.8528 34.571 65.726 34.1974 65.726 33.8238C65.726 33.2867 65.9433 32.8255 66.3778 32.4402C66.8122 32.0549 67.3493 31.8623 67.9889 31.8623C68.3993 31.8623 68.7915 31.9499 69.1596 32.1308C69.5277 32.3118 69.932 32.6387 70.3665 33.1116" fill="white"/>
<path d="M75.4414 31.8506H77.0284V34.9271H79.7741V31.8506H81.3551V39.9942H79.7741V36.4274H77.0284V39.9942H75.4414V31.8506Z" fill="white"/>
<path d="M101.57 36.5383L102.505 37.6124L102.083 37.9977L101.667 38.3771L102.988 39.784H101.087L100.544 39.2236C99.6814 39.7373 98.8788 39.9942 98.1306 39.9942C97.503 39.9942 96.9901 39.8074 96.6039 39.4396C96.2117 39.066 96.0186 38.5931 96.0186 38.0094C96.0186 37.5715 96.1272 37.1571 96.3504 36.7659C96.5737 36.3748 96.9479 35.972 97.4849 35.5575C96.9539 34.8395 96.6884 34.209 96.6884 33.6544C96.6884 33.2458 96.8634 32.843 97.2134 32.446C97.5634 32.0491 98.0582 31.8506 98.6978 31.8506C99.3375 31.8506 99.8383 32.0491 100.182 32.4402C100.526 32.8313 100.701 33.2283 100.701 33.6311C100.701 33.9463 100.623 34.2499 100.466 34.5359C100.309 34.822 99.9409 35.254 99.3737 35.8202C100.043 36.6142 100.472 37.1045 100.665 37.303C100.786 37.2096 101.087 36.9586 101.576 36.5383M99.5306 38.132C99.2409 37.8459 98.8366 37.3789 98.3116 36.7192C97.7625 37.1804 97.4849 37.5832 97.4849 37.9276C97.4849 38.0911 97.5633 38.237 97.7142 38.3713C97.8651 38.5056 98.0582 38.5756 98.2875 38.5756C98.6194 38.5756 99.0357 38.4297 99.5366 38.132M98.6073 34.7169C99.0176 34.3608 99.2288 34.0456 99.2288 33.7712C99.2288 33.6311 99.1806 33.5143 99.09 33.4209C98.9995 33.3275 98.8728 33.2867 98.722 33.2867C98.5771 33.2867 98.4625 33.3392 98.3599 33.4384C98.2633 33.5377 98.209 33.6544 98.209 33.7887C98.209 34.0572 98.3418 34.3666 98.6073 34.7111" fill="white"/>
<path d="M120.271 33.4092L119.172 34.3899C118.43 33.6486 117.591 33.2749 116.662 33.2749C115.878 33.2749 115.214 33.526 114.677 34.0338C114.14 34.5417 113.868 35.1664 113.868 35.9078C113.868 36.4273 113.983 36.8826 114.224 37.2855C114.466 37.6883 114.798 38.0035 115.238 38.2312C115.673 38.4588 116.161 38.5756 116.692 38.5756C117.145 38.5756 117.561 38.4939 117.935 38.3362C118.31 38.1728 118.726 37.8809 119.172 37.4606L120.234 38.5055C119.631 39.066 119.052 39.4512 118.515 39.6672C117.972 39.8832 117.356 39.9883 116.662 39.9883C115.383 39.9883 114.339 39.6089 113.524 38.8441C112.71 38.0794 112.299 37.0986 112.299 35.9019C112.299 35.1313 112.486 34.4425 112.854 33.8412C113.229 33.2399 113.76 32.7554 114.448 32.3876C115.135 32.0257 115.884 31.8389 116.68 31.8389C117.356 31.8389 118.014 31.9731 118.641 32.2475C119.269 32.516 119.812 32.9013 120.265 33.3975" fill="white"/>
<path d="M127.596 31.8506H129.183L132.345 39.9942H130.716L130.071 38.3129H126.715L126.046 39.9942H124.422L127.596 31.8506ZM128.399 34.0105L127.295 36.8068H129.497L128.399 34.0105Z" fill="white"/>
<path d="M137.112 31.8506H138.772C139.683 31.8506 140.329 31.9323 140.715 32.0899C141.101 32.2476 141.409 32.5161 141.644 32.8897C141.88 33.2633 142 33.7011 142 34.2149C142 34.7286 141.868 35.1956 141.608 35.5575C141.349 35.9136 140.956 36.188 140.437 36.3748L142.387 39.9942H140.673L138.82 36.5441H138.675V39.9942H137.106V31.8506H137.112ZM138.681 35.0321H139.17C139.665 35.0321 140.009 34.9679 140.196 34.8395C140.383 34.7111 140.474 34.4951 140.474 34.1973C140.474 34.0222 140.425 33.8646 140.335 33.7362C140.244 33.6077 140.118 33.5085 139.961 33.456C139.804 33.3976 139.52 33.3684 139.104 33.3684H138.675V35.0438L138.681 35.0321Z" fill="white"/>
<path d="M147.196 31.8506H148.855C149.76 31.8506 150.412 31.9323 150.798 32.0899C151.185 32.2476 151.492 32.5161 151.728 32.8897C151.963 33.2633 152.078 33.7011 152.078 34.2149C152.078 34.7286 151.945 35.1956 151.685 35.5575C151.426 35.9136 151.034 36.188 150.515 36.3748L152.464 39.9942H150.756L148.904 36.5441H148.759V39.9942H147.196V31.8506ZM148.759 35.0321H149.247C149.742 35.0321 150.086 34.9679 150.273 34.8395C150.46 34.7111 150.557 34.4951 150.557 34.1973C150.557 34.0222 150.509 33.8646 150.418 33.7362C150.328 33.6077 150.201 33.5085 150.044 33.456C149.887 33.3976 149.604 33.3684 149.187 33.3684H148.759V35.0438V35.0321Z" fill="white"/>
<path d="M156.597 31.8506H158.275L159.813 34.7811L161.34 31.8506H163L160.592 36.4682V39.9942H159.017V36.4682L156.597 31.8506Z" fill="white"/>
</g>
</g>
<defs>
<clipPath id="clip0_48_2588">
<rect width="163" height="40" fill="white"/>
</clipPath>
</defs>
</svg>
