<svg width="122" height="30" viewBox="0 0 122 30" fill="none" xmlns="http://www.w3.org/2000/svg">
<mask id="mask0_2_23" style="mask-type:luminance" maskUnits="userSpaceOnUse" x="0" y="0" width="122" height="30">
<path d="M122 0H0V30H122V0Z" fill="white"/>
</mask>
<g mask="url(#mask0_2_23)">
<path d="M29.9941 2.22423C29.3076 1.19096 28.1875 0.499187 26.6383 0.153302C25.1253 -0.188204 23.6755 0.0482236 22.2889 0.862584C20.9023 1.67695 19.7416 2.80216 18.7976 4.23824C17.6956 5.91075 17.2078 7.23299 17.3388 8.19621C17.4698 9.15943 18.0208 9.7505 18.9964 9.96941C19.6829 10.1227 20.6539 10.0001 21.914 9.59726C23.1741 9.19446 24.2897 8.66031 25.2608 8.00357C25.735 8.16118 26.137 8.43264 26.4667 8.80917C26.8009 9.1857 27.0222 9.65856 27.1396 10.2365C27.2571 10.81 27.2074 11.5018 26.9906 12.303C26.7738 13.1043 26.3357 14.0106 25.6718 15.0132C24.2536 17.1673 22.3928 18.7785 20.0939 19.8556C17.795 20.9283 15.3606 21.1822 12.7997 20.6043C10.1666 20.0132 8.17028 18.7391 6.80629 16.782C5.44231 14.8293 4.43964 12.5438 3.80281 9.93001C3.54989 8.8836 3.40536 8.23561 3.22922 7.12353L0.058625 7.17607C0.058625 7.17607 -0.0994529 17.3424 0.0992736 19.803C0.298 22.2636 0.849014 24.4046 1.73877 26.226C2.62852 28.043 4.23188 29.2164 6.53982 29.733C8.34191 30.1402 10.144 30.0745 11.9416 29.5491C13.7391 29.0193 15.5006 28.1524 17.2259 26.9484C18.9512 25.7444 20.6178 24.2514 22.2211 22.4694C23.829 20.6875 25.324 18.7479 26.7106 16.6419C28.0023 14.6804 29.014 12.7803 29.7502 10.9414C30.4864 9.10251 30.8793 7.44752 30.938 5.97642C30.9922 4.50532 30.6806 3.25313 29.9941 2.21985" fill="#A7C257"/>
<path d="M35.4141 17.8065C35.4141 18.5201 35.3463 18.7916 35.3057 18.8879C35.2425 19.0411 35.1296 19.1637 34.9624 19.2644C34.7863 19.3695 34.5785 19.4221 34.3211 19.4221C34.0862 19.4221 33.8875 19.3783 33.7294 19.2819C33.5759 19.19 33.4675 19.0762 33.4042 18.9273C33.3546 18.8135 33.2913 18.5595 33.2913 18.0079V12.1016H30.9473V17.57C30.9473 18.6559 31.0602 19.4177 31.295 19.8993C31.5299 20.3853 31.9228 20.7881 32.4648 21.1077C33.0023 21.4229 33.6436 21.5849 34.3618 21.5849C34.9082 21.5849 35.396 21.5017 35.8161 21.3354C36.2361 21.169 36.6155 20.9063 36.9362 20.5604C37.2568 20.2145 37.4781 19.8511 37.5956 19.4702C37.7085 19.0981 37.7627 18.4763 37.7627 17.57V12.1016H35.4186V17.8021L35.4141 17.8065Z" fill="white"/>
<path d="M45.174 17.2898L41.6962 12.106H39.5645V21.5849H41.904V16.4186L45.3772 21.5849H47.5135V12.106H45.174V17.2898Z" fill="white"/>
<path d="M51.5828 12.106H49.2568V21.5893H51.5828V12.106Z" fill="white"/>
<path d="M52.4141 14.3476H54.0445V21.5849H56.4112V14.3476H58.0868V12.1016H52.4141V14.3476Z" fill="white"/>
<path d="M59.0576 21.5849H64.6671V19.3476H61.3881V17.5744H64.6671V15.3765H61.3881V14.3345H64.6671V12.106H59.0576V21.5849Z" fill="white"/>
<path d="M71.5547 12.6138C70.8546 12.2679 69.8384 12.1016 68.4428 12.1016H66.0762V21.5849H68.479C69.712 21.5849 70.5611 21.5105 71.0759 21.3529C71.5999 21.1953 72.0922 20.9107 72.5393 20.4991C72.9819 20.0919 73.3342 19.5753 73.5871 18.9623C73.8355 18.3538 73.962 17.6839 73.962 16.9658C73.962 15.9545 73.7362 15.0569 73.2936 14.2907C72.8464 13.5201 72.2638 12.9553 71.5683 12.6094M68.9306 19.352H68.4112V14.3038H68.7093C69.712 14.3038 70.4391 14.514 70.8682 14.9256C71.3605 15.394 71.5999 16.0508 71.5999 16.9221C71.5999 17.4869 71.496 17.9641 71.2882 18.3406C71.0895 18.704 70.8366 18.9667 70.5295 19.1156C70.2133 19.2732 69.6713 19.352 68.9216 19.352" fill="white"/>
<path d="M78.416 21.5849H80.742V17.5744H83.5648V15.3765H80.742V14.3301H83.5648V12.106H78.416V21.5849Z" fill="white"/>
<path d="M89.5266 12.1016C88.6188 12.1016 87.7607 12.3161 86.9748 12.7364C86.1889 13.1567 85.5611 13.7347 85.114 14.4571C84.6623 15.1795 84.4365 15.9807 84.4365 16.8389C84.4365 18.1217 84.9243 19.2425 85.8863 20.1751C86.8529 21.1121 88.0813 21.5849 89.5402 21.5849C90.999 21.5849 92.1327 21.1252 93.1082 20.2145C94.0838 19.3038 94.5806 18.1786 94.5806 16.8695C94.5806 15.5604 94.0793 14.4089 93.0902 13.4895C92.101 12.57 90.8997 12.1016 89.5266 12.1016ZM89.5402 19.4702C88.8717 19.4702 88.2936 19.2819 87.7742 18.8879C87.1103 18.3888 86.7896 17.732 86.7896 16.8695C86.7896 16.0946 87.0471 15.4728 87.5755 14.9737C88.1039 14.4746 88.7362 14.2338 89.5131 14.2338C90.2899 14.2338 90.9087 14.4834 91.4462 14.9912C91.9836 15.5035 92.2456 16.1164 92.2456 16.8564C92.2456 17.5963 91.9881 18.2093 91.4552 18.7172C90.9222 19.2207 90.299 19.4658 89.5447 19.4658" fill="white"/>
<path d="M100.632 12.1016C99.7243 12.1016 98.8661 12.3161 98.0803 12.7364C97.2944 13.1567 96.6666 13.7347 96.2195 14.4571C95.7723 15.1795 95.542 15.9807 95.542 16.8389C95.542 18.1217 96.0298 19.2425 96.9918 20.1751C97.9583 21.1121 99.1868 21.5849 100.646 21.5849C102.104 21.5849 103.238 21.1252 104.214 20.2145C105.189 19.3038 105.686 18.1786 105.686 16.8695C105.686 15.5604 105.185 14.4089 104.196 13.4895C103.207 12.57 102.01 12.1016 100.632 12.1016ZM100.646 19.4702C99.9727 19.4702 99.3991 19.2819 98.8797 18.8879C98.2158 18.3888 97.8951 17.732 97.8951 16.8695C97.8951 16.0902 98.1525 15.4728 98.681 14.9737C99.2094 14.4746 99.8417 14.2338 100.614 14.2338C101.386 14.2338 102.014 14.4834 102.547 14.9912C103.085 15.5035 103.347 16.1121 103.347 16.8564C103.347 17.6007 103.085 18.2093 102.556 18.7172C102.023 19.2207 101.4 19.4658 100.646 19.4658" fill="white"/>
<path d="M112.588 12.6138C111.888 12.2679 110.872 12.1016 109.476 12.1016H107.109V21.5849H109.508C110.741 21.5849 111.59 21.5105 112.105 21.3529C112.629 21.1953 113.121 20.9107 113.563 20.4991C114.006 20.0919 114.358 19.5753 114.611 18.9623C114.86 18.3538 114.986 17.6839 114.986 16.9658C114.986 15.9545 114.76 15.0569 114.318 14.2907C113.871 13.5201 113.288 12.9553 112.588 12.6094M109.955 19.352H109.435V14.3038H109.733C110.736 14.3038 111.463 14.514 111.892 14.9256C112.385 15.394 112.624 16.0508 112.624 16.9221C112.624 17.4869 112.52 17.9641 112.317 18.3406C112.114 18.7128 111.865 18.9667 111.558 19.1156C111.242 19.2732 110.7 19.352 109.95 19.352" fill="white"/>
<path d="M121.747 17.7978C121.584 17.4694 121.313 17.1191 120.934 16.7689C120.785 16.6288 120.383 16.3004 119.701 15.775C118.834 15.1007 118.549 14.8293 118.464 14.7286C118.396 14.6454 118.369 14.571 118.369 14.4878C118.369 14.4659 118.369 14.4002 118.482 14.3126C118.572 14.2426 118.694 14.2076 118.857 14.2076C119.227 14.2076 119.611 14.4659 120.008 14.9738L120.198 15.2189L121.955 13.7829L121.765 13.5771C121.25 13.0211 120.781 12.6489 120.329 12.4387C119.873 12.2242 119.389 12.1147 118.884 12.1147C118.093 12.1147 117.42 12.3512 116.883 12.824C116.336 13.2969 116.061 13.8748 116.061 14.5403C116.061 15 116.223 15.4641 116.549 15.9195C116.86 16.3573 117.515 16.9484 118.549 17.7321C119.177 18.2049 119.421 18.4501 119.52 18.5683C119.638 18.7128 119.697 18.8529 119.697 18.9843C119.697 19.0675 119.674 19.1944 119.493 19.3389C119.344 19.4571 119.159 19.5184 118.929 19.5184C118.473 19.5184 118.044 19.1857 117.66 18.5333L117.515 18.2837L115.546 19.3827L115.668 19.6104C116.034 20.2846 116.49 20.7925 117.018 21.1165C117.551 21.4449 118.184 21.6069 118.893 21.6069C119.805 21.6069 120.559 21.3529 121.133 20.8494C121.711 20.3415 122.005 19.6936 122.005 18.923C122.005 18.5289 121.923 18.1568 121.756 17.8197" fill="white"/>
<path d="M36.9087 25.0569L36.0867 25.7925C35.5266 25.2364 34.9034 24.9562 34.2033 24.9562C33.6162 24.9562 33.1193 25.1445 32.7174 25.5254C32.3154 25.9063 32.1122 26.3748 32.1122 26.9308C32.1122 27.3205 32.198 27.662 32.3786 27.9641C32.5593 28.2662 32.8077 28.5026 33.1374 28.6734C33.4626 28.8441 33.8239 28.9317 34.2259 28.9317C34.5646 28.9317 34.8763 28.8704 35.1608 28.7522C35.4408 28.6296 35.7525 28.4107 36.0867 28.0954L36.8816 28.8792C36.4254 29.2995 35.9964 29.5884 35.5944 29.7504C35.1879 29.9124 34.7272 29.9912 34.2078 29.9912C33.2503 29.9912 32.469 29.7066 31.8592 29.1331C31.2495 28.5595 30.9424 27.824 30.9424 26.9264C30.9424 26.3485 31.0824 25.8319 31.3579 25.3809C31.6379 24.9299 32.0354 24.5665 32.5503 24.2907C33.0697 24.0193 33.6252 23.8792 34.2214 23.8792C34.7272 23.8792 35.2195 23.9799 35.6892 24.1856C36.159 24.387 36.5654 24.676 36.9042 25.0482" fill="#A7C257"/>
<path d="M42.3917 23.8879H43.5795L45.9462 29.9956H44.7267L44.248 28.7347H41.7368L41.2355 29.9956H40.0205L42.3962 23.8879H42.3917ZM42.9924 25.5079L42.1659 27.6051H43.8099L42.9879 25.5079H42.9924Z" fill="#A7C257"/>
<path d="M52.662 24.8249L51.7949 25.5517C51.4877 25.1489 51.1806 24.9519 50.8645 24.9519C50.7109 24.9519 50.5844 24.9913 50.4896 25.0701C50.3902 25.1489 50.3451 25.2365 50.3451 25.3328C50.3451 25.4291 50.3812 25.5211 50.4489 25.6086C50.5438 25.7269 50.8328 25.9764 51.3071 26.3573C51.7542 26.712 52.0252 26.9353 52.1201 27.0228C52.3594 27.2505 52.5265 27.465 52.6259 27.6752C52.7253 27.881 52.7749 28.1086 52.7749 28.3538C52.7749 28.8311 52.5988 29.2251 52.251 29.536C51.9033 29.8468 51.4471 30.0044 50.887 30.0044C50.4489 30.0044 50.065 29.9037 49.7399 29.698C49.4147 29.4966 49.1346 29.1769 48.9043 28.7435L49.8889 28.1831C50.1825 28.6953 50.5257 28.9536 50.9096 28.9536C51.1084 28.9536 51.28 28.8967 51.4155 28.7873C51.551 28.6778 51.6187 28.5508 51.6187 28.402C51.6187 28.2706 51.569 28.1393 51.4652 28.0079C51.3613 27.8766 51.1309 27.6752 50.7832 27.4037C50.1147 26.8871 49.6811 26.4887 49.4869 26.2085C49.2882 25.9283 49.1934 25.648 49.1934 25.3678C49.1934 24.965 49.3559 24.6191 49.6811 24.3302C50.0063 24.0412 50.4083 23.8967 50.887 23.8967C51.1942 23.8967 51.4877 23.9624 51.7632 24.0981C52.0388 24.2339 52.3414 24.479 52.6666 24.8337" fill="#A7C257"/>
<path d="M56.4658 23.8879H57.6537V26.1953H59.7087V23.8879H60.892V29.9956H59.7087V27.3205H57.6537V29.9956H56.4658V23.8879Z" fill="#A7C257"/>
<path d="M76.0214 27.4037L76.7215 28.2093L76.4053 28.4983L76.0937 28.7829L77.0828 29.838H75.6601L75.2536 29.4177C74.6077 29.803 74.007 29.9956 73.447 29.9956C72.9773 29.9956 72.5934 29.8555 72.3043 29.5797C72.0107 29.2995 71.8662 28.9449 71.8662 28.507C71.8662 28.1787 71.9475 27.8678 72.1146 27.5745C72.2817 27.2811 72.5618 26.979 72.9637 26.6681C72.5663 26.1296 72.3675 25.6568 72.3675 25.2408C72.3675 24.9343 72.4985 24.6322 72.7605 24.3345C73.0224 24.0368 73.3928 23.8879 73.8715 23.8879C74.3503 23.8879 74.7252 24.0368 74.9826 24.3301C75.24 24.6235 75.371 24.9212 75.371 25.2233C75.371 25.4597 75.3123 25.6874 75.1949 25.9019C75.0775 26.1165 74.8019 26.4405 74.3774 26.8652C74.8787 27.4606 75.1994 27.8284 75.3439 27.9773C75.4343 27.9072 75.6601 27.7189 76.0259 27.4037M74.4948 28.599C74.278 28.3844 73.9754 28.0342 73.5825 27.5394C73.1715 27.8853 72.9637 28.1874 72.9637 28.4457C72.9637 28.5683 73.0224 28.6778 73.1353 28.7785C73.2483 28.8792 73.3928 28.9317 73.5644 28.9317C73.8128 28.9317 74.1245 28.8223 74.4993 28.599M73.8038 26.0377C74.1109 25.7706 74.269 25.5342 74.269 25.3284C74.269 25.2233 74.2329 25.1357 74.1651 25.0657C74.0974 24.9956 74.0025 24.965 73.8896 24.965C73.7812 24.965 73.6954 25.0044 73.6186 25.0788C73.5464 25.1533 73.5057 25.2408 73.5057 25.3415C73.5057 25.5429 73.6051 25.775 73.8038 26.0333" fill="#A7C257"/>
<path d="M90.0181 25.0569L89.1961 25.7925C88.6405 25.2364 88.0127 24.9562 87.3172 24.9562C86.73 24.9562 86.2332 25.1445 85.8313 25.5254C85.4293 25.9063 85.226 26.3748 85.226 26.9308C85.226 27.3205 85.3119 27.662 85.4925 27.9641C85.6732 28.2662 85.9216 28.5026 86.2513 28.6734C86.5765 28.8441 86.9423 28.9317 87.3398 28.9317C87.6785 28.9317 87.9902 28.8704 88.2702 28.7522C88.5502 28.6296 88.8618 28.4107 89.1961 28.0954L89.991 28.8792C89.5393 29.2995 89.1057 29.5884 88.7038 29.7504C88.2973 29.9124 87.8366 29.9912 87.3172 29.9912C86.3597 29.9912 85.5783 29.7066 84.9686 29.1331C84.3589 28.5595 84.0518 27.824 84.0518 26.9264C84.0518 26.3485 84.1918 25.8319 84.4673 25.3809C84.7473 24.9299 85.1448 24.5665 85.6596 24.2907C86.1745 24.0193 86.7346 23.8792 87.3307 23.8792C87.8366 23.8792 88.3289 23.9799 88.7986 24.1856C89.2683 24.387 89.6748 24.676 90.0136 25.0482" fill="#A7C257"/>
<path d="M95.5017 23.8879H96.6895L99.0562 29.9956H97.8367L97.3534 28.7347H94.8423L94.3409 29.9956H93.126L95.5017 23.8879ZM96.1024 25.5079L95.2758 27.6051H96.9244L96.1024 25.5079Z" fill="#A7C257"/>
<path d="M102.624 23.8879H103.866C104.548 23.8879 105.031 23.9492 105.32 24.0674C105.609 24.1857 105.839 24.3871 106.016 24.6673C106.192 24.9475 106.282 25.2759 106.282 25.6611C106.282 26.0464 106.183 26.3967 105.988 26.6681C105.794 26.9352 105.501 27.141 105.112 27.2811L106.571 29.9956H105.288L103.902 27.4081H103.793V29.9956H102.619V23.8879H102.624ZM103.798 26.2741H104.164C104.534 26.2741 104.792 26.2259 104.932 26.1296C105.072 26.0333 105.139 25.8713 105.139 25.648C105.139 25.5167 105.103 25.3984 105.035 25.3021C104.968 25.2058 104.873 25.1314 104.755 25.092C104.638 25.0482 104.426 25.0263 104.114 25.0263H103.793V26.2829L103.798 26.2741Z" fill="#A7C257"/>
<path d="M110.171 23.8879H111.413C112.09 23.8879 112.578 23.9492 112.867 24.0674C113.156 24.1857 113.387 24.3871 113.563 24.6673C113.739 24.9475 113.825 25.2759 113.825 25.6611C113.825 26.0464 113.725 26.3967 113.531 26.6681C113.337 26.9352 113.043 27.141 112.655 27.2811L114.114 29.9956H112.836L111.449 27.4081H111.341V29.9956H110.171V23.8879ZM111.341 26.2741H111.707C112.077 26.2741 112.334 26.2259 112.474 26.1296C112.614 26.0333 112.687 25.8713 112.687 25.648C112.687 25.5167 112.65 25.3984 112.583 25.3021C112.515 25.2058 112.42 25.1314 112.303 25.092C112.185 25.0482 111.973 25.0263 111.661 25.0263H111.341V26.2829V26.2741Z" fill="#A7C257"/>
<path d="M117.208 23.8879H118.464L119.615 26.0858L120.758 23.8879H122L120.198 27.3512V29.9956H119.019V27.3512L117.208 23.8879Z" fill="#A7C257"/>
</g>
</svg>
